<?xml version="1.0" encoding="UTF-8" standalone="no"?>
<svg
   height="392.1px"
   width="486.25px"
   version="1.1"
   id="svg6"
   sodipodi:docname="lutakko_jee.svg"
   inkscape:version="1.2 (dc2aedaf03, 2022-05-15)"
   xml:space="preserve"
   xmlns:inkscape="http://www.inkscape.org/namespaces/inkscape"
   xmlns:sodipodi="http://sodipodi.sourceforge.net/DTD/sodipodi-0.dtd"
   xmlns="http://www.w3.org/2000/svg"
   xmlns:svg="http://www.w3.org/2000/svg"
   xmlns:rdf="http://www.w3.org/1999/02/22-rdf-syntax-ns#"
   xmlns:cc="http://creativecommons.org/ns#"
   xmlns:dc="http://purl.org/dc/elements/1.1/"><metadata
     id="metadata12"><rdf:RDF><cc:Work
         rdf:about=""><dc:format>image/svg+xml</dc:format><dc:type
           rdf:resource="http://purl.org/dc/dcmitype/StillImage" /></cc:Work></rdf:RDF></metadata><defs
     id="defs10"><style
       id="style1970">.cls-1{fill:#131313;}.cls-2{fill:#1a1b1b;}</style><style
       id="style10721">.cls-1{fill:#131313;}.cls-2{fill:#1a1b1b;}</style></defs><sodipodi:namedview
     pagecolor="#ffffff"
     bordercolor="#666666"
     borderopacity="1"
     objecttolerance="10"
     gridtolerance="10"
     guidetolerance="10"
     inkscape:pageopacity="0"
     inkscape:pageshadow="2"
     inkscape:window-width="1920"
     inkscape:window-height="1001"
     id="namedview8"
     showgrid="false"
     inkscape:zoom="1"
     inkscape:cx="244.5"
     inkscape:cy="214.5"
     inkscape:window-x="-9"
     inkscape:window-y="-9"
     inkscape:window-maximized="1"
     inkscape:current-layer="svg6"
     inkscape:showpageshadow="2"
     inkscape:pagecheckerboard="0"
     inkscape:deskcolor="#d1d1d1" /><g
     id="g10843"
     transform="matrix(0.8830044,0,0,0.8830044,114.93768,24.328217)"><path
       class="cls-1"
       d="m 563.66,197.51 c -3,-1.38 -5.46,-2.28 -7.68,-3.56 a 22.32,22.32 0 0 0 -12.49,-3.35 c -3.31,0.14 -5.52,-2.59 -6,-6 a 40.93,40.93 0 0 1 -0.05,-5.57 12.49,12.49 0 0 0 -4,10.83 c 0.31,3.27 -1.47,6 -3,8.6 a 113.61,113.61 0 0 1 -7.65,11.5 c -1.08,1.39 -3.27,2.89 -5.23,1.31 -1.96,-1.58 -1.06,-3.29 0.34,-5.15 5.3,-7.07 10.68,-13.71 11.06,-23.65 0.21,-5.45 4.39,-11.06 8.27,-15.71 a 68.27,68.27 0 0 0 4.36,-5.38 2.65,2.65 0 0 1 3.44,-1.22 c 1.19,0.56 1.27,1.68 1.52,2.88 1.1,5.55 -2,10.18 -3.22,15.18 -1.6,6.42 -1,8.21 5.15,7.36 5.92,-0.81 9.2,3.85 14,5 1,0.24 1.83,1.19 3.1,1.23 4.65,0.18 4.16,2.27 2.8,5.89 -1.5,4 -3.22,8.11 -0.18,12.9 a 43.38,43.38 0 0 0 13.93,13.92 c 9.22,5.87 15.75,14.15 16.47,26 0.24,4 2.56,7.81 1.88,12.06 -0.26,1.6 0.2,3.22 -0.69,4.85 -0.67,1.24 -1,3.34 0.26,4.14 1.26,0.8 3.26,0.31 4.48,-1.07 4.58,-5.16 8.45,-10.5 10.15,-17.57 1.18,-4.89 3.92,-9.49 2.39,-14.65 -0.89,-3 -0.38,-5.93 -0.61,-8.89 -0.17,-2.23 0.92,-3.55 3.15,-3.53 2.4,0 3,1.62 2.87,3.73 -0.08,1.33 0.07,2.67 0,4 -0.34,4.33 0,8.35 4.84,10.15 5.78,2.13 11.46,0.52 15,-4.22 0.49,-0.66 0.72,-1.52 1.24,-2.14 1.59,-1.89 6.67,-1.95 3.45,-6.28 -1.75,-2.37 -1.37,-6 -4.92,-7.42 a 7,7 0 0 1 -3.62,-4.5 c -1.19,-6.14 -6.08,-5.94 -10.32,-6.28 -8.4,-0.69 -16.85,-0.74 -25.26,-1.33 -3.2,-0.23 -3,2.44 -3.17,3.78 -0.3,2 -0.85,3.85 -1.32,5.74 -0.54,2.21 -2.56,2 -4.13,1.58 a 2.16,2.16 0 0 1 -1.53,-3.14 c 4.57,-9 1.6,-19 3.65,-28.31 0.45,-2 0.3,-4.08 2.94,-4.38 2.64,-0.3 3.45,1.94 3.9,3.73 a 12.67,12.67 0 0 1 -0.37,6.82 c -1.71,5.71 1,10 7.3,9.51 8.21,-0.67 16.37,1 24.55,1.67 a 26,26 0 0 0 -3.79,-14.38 c -2,-3.5 -0.06,-7.6 2.74,-10.37 6.43,-6.38 13.9,-10.86 23.34,-11 2.57,-0.05 4.79,0.57 5.39,3.31 0.6,2.74 -0.3,4.41 -3.08,5.9 -3.87,2.07 -7.46,5 -6.79,10.34 0.42,3.4 3.3,5.74 5.43,7.05 5.37,3.3 6.92,9 10.4,13.48 1.29,1.64 2.23,3.55 3.75,5.12 4.28,4.43 3.61,10.11 3.34,15.54 -0.21,4.17 0.44,7.07 5.46,7.45 1.62,0.12 3.21,1.57 4.68,2.62 5.72,4.07 11.53,3 15.6,-2.63 2.94,-4.1 5,-8.31 4.38,-13.61 a 23.27,23.27 0 0 1 1.73,-11.61 c 2,-4.93 1.22,-10.43 1.16,-15.71 0,-2.58 0.76,-4.25 3.62,-4.22 2.86,0.03 3.41,1.7 3.5,4.27 0.17,4.35 -0.06,8.75 -1.66,12.65 -2.2,5.35 -0.65,10.32 0.3,15.36 1.65,8.84 9.56,11.45 16.11,15.23 a 111.11,111.11 0 0 0 11.86,5.64 c 2.79,1.19 5.37,2.61 8.65,3 8.92,1.1 16.73,10.86 16.58,20 -0.1,6.63 1.62,13.66 -0.69,19.81 -3.48,9.24 -8.54,17.81 -16.65,24.14 -1.67,1.3 -3.57,0.58 -5.35,2 -8.56,6.63 -8.08,15.34 -6.37,24.42 0.55,2.93 1.63,5.8 1,8.78 -0.64,3.16 -2,6.06 -5.69,6.61 -1.45,0.22 -3.14,0.37 -3.93,-1.35 -0.79,-1.72 0.36,-2.79 1.8,-3.49 3.1,-1.49 2.75,-3.62 2,-6.58 -2,-8.12 -2.62,-16.55 0.19,-24.49 a 17.23,17.23 0 0 1 9.91,-9.76 20.8,20.8 0 0 0 8.68,-6.64 c 3.27,-3.88 5,-8.72 8.12,-12.79 2.94,-3.89 1.36,-9 2.08,-13.49 1.44,-9.13 -2.52,-15.49 -9.29,-20.74 a 3.11,3.11 0 0 0 -1.74,-0.61 c -7.31,-0.12 -13.18,-4.4 -19.33,-7.33 -5.52,-2.64 -11.66,-4.41 -16.24,-9.21 -1.88,-2 -3.18,-4.33 -5.05,-6.08 -2.48,3.43 -3.14,7.79 -6.13,11.08 -4.7,5.17 -16.53,6.64 -22.1,2.18 -2.91,-2.33 -6.46,-3.22 -9.77,-4.24 -3.64,-1.12 -3.83,-3 -3.17,-5.88 1.23,-5.4 1.63,-10.82 -1.33,-15.78 -1.78,-3 -4.67,-5.39 -6.09,-8.5 -2.66,-5.83 -7.95,-9.3 -11.58,-14.23 -4.54,-6.18 -4.71,-12.72 0,-18.71 0.51,-0.65 1.12,-1.22 2.37,-2.55 -6.7,2.28 -11.84,5.13 -15.77,10 -1.33,1.66 -1.47,2.88 -0.28,4.78 0.74,1.16 2,2.88 1.85,3.82 -1.12,6.26 4.44,9.33 6.32,14.08 2.56,6.46 5.21,12.89 7.56,19.42 1.92,5.35 0.62,6.92 -4.15,10.41 -2.08,1.53 -3.71,4 -5.93,5.83 -4.36,3.58 -9.28,3 -14.17,2.73 -2.13,-0.13 -4.83,-2.37 -6.24,-0.81 -1.69,1.86 -2.12,4.94 -2.84,7.57 -2.07,7.49 -5.59,14 -11.78,18.95 -3.56,2.83 -7.67,1.07 -11.53,1.21 -1.29,0.05 -1.78,-1.43 -1.71,-2.65 0.19,-3.3 0.28,-6.64 0.33,-9.9 0.13,-9.57 -0.88,-19.07 -7.48,-26.83 -4,-4.65 -9,-8 -13.92,-11.52 a 31,31 0 0 1 -12.54,-19.24 c -3,0.25 -4.55,3.48 -5.32,5.37 -1.4,3.42 -4.48,5.44 -5.77,9 a 12.66,12.66 0 0 0 -0.75,7.44 39,39 0 0 1 0.39,8.92 c -0.08,2.15 0.87,4.41 2.51,4.24 6.64,-0.7 7.15,5.58 10.5,8.56 0.72,0.64 1.19,1.58 1.88,2.27 4.22,4.19 6.31,8.57 4.47,15 -1.17,4.12 -1.09,8.67 -2.11,13.06 -1.52,6.53 -6.52,9.59 -11.31,12.35 -9.23,5.32 -19.71,3.09 -29.69,2.95 -2.52,0 -5.55,-2.13 -5.34,-6.43 0.44,-8.88 0.74,-17.48 3.17,-26.35 a 49.26,49.26 0 0 0 -0.54,-26.75 c -1.33,-4.55 -1.48,-9.07 -5.12,-12.86 a 23.91,23.91 0 0 0 -5.14,-4.33 c -7.92,-4.35 -9.42,-11.39 -9.26,-19.4 0.06,-2.78 0,-5.57 0,-10 -5.32,6.24 -13.84,7.74 -13.68,16.82 0,0.65 -0.33,1.68 0,1.88 5.84,4.09 2.88,11 5.33,16.37 5.37,11.75 3.66,24.16 2.09,36.71 -1.17,9.32 -6.62,16.65 -8.8,25.35 -0.91,3.65 -4.28,4.65 -7.36,2.11 -9.55,-7.86 -12.47,-8.8 -9.7,-21.76 0.9,-4.25 1.15,-8.64 3.09,-13.31 -10,4 -19.82,7 -27.75,14.44 -3.22,3 -8.1,4.11 -10.58,8.49 -0.79,1.4 -1.84,2.76 -2,4.27 -0.71,8.48 -3,17.6 2.38,24.95 3.84,5.28 6.95,11.19 11.43,15.88 4.17,4.38 6.24,9.9 9.6,14.69 4.18,5.94 9.29,11.08 13.62,16.86 0.29,0.39 1,0.66 1,1 1.14,8.54 7.07,16.35 3.56,25.66 -0.88,2.34 -0.2,5.28 -0.23,8 a 17.88,17.88 0 0 1 -5.79,13.34 c -1.71,1.64 -3.4,2.31 -5.22,1 -2.12,-1.56 -0.61,-3.63 0.46,-4.78 8.14,-8.8 6.94,-19.62 5.19,-29.67 a 36.94,36.94 0 0 0 -13.11,-22 c -3.13,-2.59 -4.67,-6.43 -6.42,-9.72 -5.24,-9.88 -13,-17.92 -18.85,-27.31 -2.18,-3.49 -3.56,-6.91 -3.33,-11.09 a 108.43,108.43 0 0 0 0,-13.49 c -0.49,-7 2.61,-12.16 7.8,-16.26 3.62,-2.85 7.46,-5.42 11.29,-8 9.14,-6.15 19.45,-9.65 29.86,-12.85 2.07,-0.64 4.62,-1 5.87,1.27 1.1,2 -1.31,3 -2.13,4.47 -2.71,4.86 -3.27,10.49 -4.86,15.72 -1.75,5.74 1.17,8.91 4,12.56 1.78,2.27 3.09,2.45 4.5,-0.67 a 103,103 0 0 0 9.05,-37.83 c 0.3,-6.23 -4.07,-10.26 -4.2,-16 -0.06,-2.22 -1.32,-4.69 -1.14,-7.19 0.18,-2.5 -0.08,-4.94 -2.41,-6.62 a 3.86,3.86 0 0 1 -1.6,-2.41 c -1.28,-5.78 2.3,-14 6.86,-18.13 A 130.48,130.48 0 0 1 504,182.86 c 1.86,-1.3 3.72,-1.73 5.48,-0.35 1.76,1.38 0.67,3.15 0.21,5 -2.38,9.4 -2.8,20.74 7.91,28 5.49,3.73 8.42,8.89 10.27,15.77 2.89,10.75 0.61,21.33 1.55,31.92 a 7.67,7.67 0 0 1 -1.07,4.72 c -3.95,5.71 -2.63,12.11 -2.87,18.33 -0.12,2.9 1.28,4.53 4,4.47 7.2,-0.18 14.41,0.91 21.44,-2.5 7.31,-3.54 11.29,-9 12.47,-16.73 0.47,-3.07 -0.62,-6.25 0.8,-9.33 0.33,-0.7 -0.41,-2.51 -1.19,-3 -4.24,-2.84 -6.15,-7.58 -9.37,-11.23 -1.93,-2.18 -5.12,-0.16 -6.94,-2.84 -0.72,-1.07 -2.42,-1.62 -2.25,-3.33 0.6,-5.83 -0.76,-11.54 -1.13,-17.31 a 15,15 0 0 1 2.71,-9.21 c 2.81,-4.42 6.33,-8.39 9.45,-12.62 1.96,-2.68 4.66,-4.1 8.19,-5.11 z"
       transform="translate(-383.92,-115.6)"
       id="path10725" /><path
       class="cls-1"
       d="m 516.63,348.51 c -4.56,-0.19 -7.76,2.53 -11.64,2.28 -1.74,-0.11 -3.94,-0.28 -3.32,-2.47 0.62,-2.19 3.72,-3.16 2.33,-6.79 -0.46,-1.2 4.57,-2.62 7.14,-3.88 7.23,-3.54 16,-3.1 22.47,-8 7.47,-5.64 16.72,-7.67 24.17,-13.28 2.41,-1.82 6.27,-1.63 9.34,-2.74 1.84,-0.66 4.72,-1 3.38,-4.42 a 2.12,2.12 0 0 1 1.37,-2.87 c 3.82,-0.7 6.82,-4 10.27,-4.31 6.91,-0.54 12,-4.67 17.9,-7.15 a 88.44,88.44 0 0 1 15.54,-5.43 37,37 0 0 0 17.58,-9.11 c 3.69,-3.53 7.89,-6.49 11.74,-9.68 2.91,-2.41 7.8,-3.87 12.4,-4 14.09,-0.34 28.15,0 42.07,2.2 4.2,0.66 8.34,1.56 12.59,2.09 4,0.5 5.49,4.8 7.36,8 a 1.84,1.84 0 0 1 -1.53,2.63 c -1.92,0.26 -4.68,0.9 -5.15,-1.56 -0.84,-4.44 -3.88,-3.84 -7,-4.4 -7.24,-1.29 -14.47,-2.44 -21.78,-3.21 -17.32,-1.83 -34,-2.31 -47.4,12.37 -5.07,5.54 -12.56,8.71 -20.64,10.19 -6.9,1.26 -13.45,4.53 -19.68,8 -3.46,1.94 -6.83,3.91 -11,3.78 a 2.27,2.27 0 0 0 -2.47,2 c -0.17,1.31 1.34,1.4 2.09,1.61 7.43,2.1 14.54,5.39 22.29,6.29 2.34,0.27 3.67,2.13 5.67,2.84 0.62,0.22 1.18,0.8 1.78,0.82 7.86,0.2 5.19,6.1 6.09,10.49 1.86,9.08 1.79,18.29 2.66,27.42 a 110.84,110.84 0 0 1 -1,27.76 c -2,12.61 -2.82,25.17 0.54,37.68 1.27,4.76 0.34,9.59 0.6,14.38 0.1,1.87 -1,2.88 -2.78,2.65 -10.78,-1.41 -21.16,2.59 -31.94,2.15 -12.47,-0.51 -25,0.37 -37.46,-0.25 -14.94,-0.73 -29.86,-0.89 -44.8,-0.84 -3.16,0 -5.41,-2.69 -8.74,-2.49 -1.2,0.07 -0.91,-2.06 -0.67,-3.69 a 272.6,272.6 0 0 1 7.25,-33.45 8.25,8.25 0 0 0 0.12,-3 c -1.32,-13.94 3.3,-26.44 9.19,-38.69 1.79,-3.56 0.95,-7.97 3.07,-11.92 z m 89.55,68.31 c -3,-3.23 -1.39,-6.86 -1.74,-10.17 -0.17,-1.64 0.24,-3.76 -2.51,-2.92 a 106.18,106.18 0 0 0 -11.73,4.06 c -1.53,0.68 -2.46,2.86 -4.63,1.55 a 2.51,2.51 0 0 1 -1.05,-3.08 c 0.63,-1.81 1.06,-4.48 3.44,-4.31 4.32,0.31 7.49,-2.41 11.25,-3.49 6.93,-2 10.37,0.21 10.17,7.24 -0.08,2.95 0.45,5.52 2.39,7.65 0.71,0.77 1.84,1.66 3,1.18 1.16,-0.48 0.58,-1.73 0.6,-2.63 0.06,-4.5 -0.25,-9 0.12,-13.49 0.9,-10.65 3.28,-21.2 2.85,-32 a 302.85,302.85 0 0 0 -2.88,-33.74 c -0.39,-2.53 -1.43,-2 -3,-1.48 a 87.59,87.59 0 0 1 -8.93,2.64 c -13.3,2.44 -26.72,1.45 -40.07,2.13 -3.88,0.2 -8.45,0.74 -11.82,2.47 -8.8,4.52 -18.49,4.87 -27.73,7.15 -2.24,0.55 -2.33,1.24 -2.58,3.07 -0.74,5.5 -1.42,11.1 -3.9,16.15 -5.52,11.25 -9.26,22.85 -8,35.6 a 21.81,21.81 0 0 1 -1,7.3 c -1.84,7.67 -4.35,15.13 -5.24,23.09 -0.63,5.62 2.87,5.74 6,5.81 12.61,0.3 25.21,0.64 37.81,0.9 21.36,0.43 42.77,1.11 64.13,-1.63 7.95,-1 8.2,-0.32 7.22,-8.4 -0.08,-0.65 -0.42,-1.27 -0.45,-1.91 -0.16,-3.35 -1.87,-4 -5.08,-3.93 -8.36,0.29 -16.77,-0.38 -25.09,0.24 -7.83,0.58 -12.21,-3.38 -11.38,-11.92 0.2,-2.09 -0.5,-5 2.61,-4.95 3.11,0.05 2.34,3 2.41,5 0.19,5 1.9,6.83 7,6.67 5.91,-0.13 11.74,-1.81 17.81,0.15 z m -77,-77.9 c 3.78,-0.57 7.94,-0.31 11.27,-1.86 a 69.47,69.47 0 0 1 29,-6.29 c 5.66,-0.07 11.4,0.59 17,-0.15 8.33,-1.11 16.86,-1.56 25,-4.78 -3.58,-3.35 -7.82,-4.07 -12,-5.13 -4.75,-1.19 -9.31,-3.15 -14.08,-4.3 -2.58,-0.61 -5.57,-3.37 -7.52,-1.89 -6.87,5.24 -15.44,6.34 -22.93,10.1 -8.79,4.38 -16.27,11.04 -25.73,14.3 z"
       transform="translate(-383.92,-115.6)"
       id="path10727" /><path
       class="cls-2"
       d="m 447.38,168.62 c 2.75,-9.73 6.75,-18.05 7.85,-27.32 0.32,-2.65 2.13,-5.13 3.29,-7.68 0.94,-2.05 2.7,-2.23 4.63,-1.9 1.93,0.33 2.62,1.93 2.76,3.65 a 9.7,9.7 0 0 1 -0.36,3.43 c -3.32,11.14 -6.7,22.26 -10.06,33.38 -1.11,3.67 0.61,6.09 4.14,7.08 4.83,1.35 8.45,0.51 11,-4 a 11.21,11.21 0 0 1 3.13,-3.2 c 5.92,-4.47 5.38,-10.34 3.75,-16.5 -0.94,-3.56 0,-6 4.12,-6 2.16,0 3.85,0.92 4.17,3.39 0.34,2.63 0.74,5.24 1.12,7.86 1,6.76 -0.91,12.25 -6.4,16.68 -3.47,2.8 -6.37,6.33 -9.47,9.58 a 7.26,7.26 0 0 1 -3.75,2.27 c -8.45,1.86 -18.52,-3.69 -20.71,-12 -0.79,-3 -1.72,-3.6 -4.57,-2.93 -11.11,2.63 -22,3.17 -33.31,-0.5 -5.43,-1.78 -11.88,-1 -17.82,0 -5.41,0.93 -6.93,-0.16 -7,-5.8 -0.09,-8 2.73,-15.48 4.4,-23.17 1.17,-5.41 4.31,-10.3 3.95,-16.13 -0.12,-1.78 1.18,-3 3.2,-3.16 a 4.69,4.69 0 0 1 5,3.22 9.07,9.07 0 0 1 -0.07,7.33 c -4.15,8.51 -5.16,17.89 -7.8,26.82 -0.63,2.13 0.63,2.19 2.06,2.19 4,0 8,0 12,0.05 2,0 4.17,-0.12 5.9,0.64 9.11,4 18.2,2.52 27.31,0.32 2.8,-0.7 5.32,-1.22 7.54,2.4 z"
       transform="translate(-383.92,-115.6)"
       id="path10729" /><path
       class="cls-2"
       d="m 699,131.1 c -2.53,-0.23 -3.9,0 -5,-0.51 a 4.55,4.55 0 0 1 -2.94,-4.25 3.72,3.72 0 0 1 2.72,-3.69 c 3.75,-1.37 7.38,-2.84 11.54,-2.54 3.81,0.27 7.66,0 11.48,0.07 13.46,0.24 19.23,5.86 17,19 -1.08,6.52 -2.79,13 -9.52,16.58 -1.2,0.63 -1.87,2.23 -2.83,3.35 -5.81,6.8 -12.5,12.66 -22,12 -6.55,-0.42 -12.09,-4.06 -15.56,-10 -1.32,-2.26 -1.8,-4.87 -0.07,-7 a 23.26,23.26 0 0 0 4.56,-9.77 c 1.34,-5.75 3.78,-10.55 10.62,-13.24 z m 26.87,4.12 c 0.17,-2.57 0.05,-3.73 -3.46,-3.4 -7.53,0.72 -14,3.59 -20.3,7.38 a 10,10 0 0 0 -5,6.4 45.9,45.9 0 0 1 -3,8.4 c -0.69,1.52 -2.27,3.12 -0.22,4.86 2.28,1.93 5.62,4.82 7.52,3.81 3,-1.63 6.78,-2.44 9.24,-5.45 a 47.33,47.33 0 0 1 8.12,-8.07 c 4.85,-3.58 6.53,-8.43 7.14,-13.93 z"
       transform="translate(-383.92,-115.6)"
       id="path10731" /><path
       class="cls-2"
       d="m 638.2,138.71 c 6,4.77 12.49,7.11 19.14,8.95 2.73,0.76 5.19,2 7.78,3 3.19,1.23 3.12,3.63 2.39,6.12 -0.79,2.68 -3.11,3.06 -5.23,2.06 -9.18,-4.29 -19.65,-5.56 -27.81,-12.28 -3.8,-3.13 -5.24,-2.44 -6.06,2.49 -1,6.3 -3.34,12.43 -2.47,19 0.37,2.8 -0.74,5.13 -3.93,5.18 -3.19,0.05 -4.15,-2.44 -4.06,-5.14 0.19,-5.58 -1.17,-11.31 1.51,-16.67 1.26,-2.53 -0.42,-4.86 -0.58,-7.29 -0.5,-7.5 0.56,-14.92 1.09,-22.36 0.16,-2.27 1.1,-4.19 4,-4.16 3.13,0 3.91,2 4,4.59 0.16,4.29 0.22,8.59 -1.26,13.52 4.84,-1.89 8,-4.76 11.16,-7.77 a 47.08,47.08 0 0 1 4.63,-4.53 c 2,-1.47 4.53,-1.62 6.35,0.31 1.82,1.93 1.3,4.26 -0.63,6.1 -3.12,2.99 -5.9,6.3 -10.02,8.88 z"
       transform="translate(-383.92,-115.6)"
       id="path10733" /><path
       class="cls-2"
       d="m 534,142.23 c -2.84,-0.61 -5.64,1.05 -7.32,4.23 -1.68,3.18 -5,4.58 -7,7.55 -1.43,2.19 -4.51,1.57 -7,1 a 3.18,3.18 0 0 1 -2.53,-3.27 c -0.14,-2.62 2.08,-3.13 3.58,-4.56 a 109.44,109.44 0 0 0 13.15,-14.74 c 4.27,-5.86 10.1,-9.76 15.65,-14 2.84,-2.18 5.85,-1.54 7.43,2.48 1.45,3.67 3.59,7 4.4,11 0.54,2.63 1.87,4.26 4.85,1.72 2.25,-1.91 5.1,-2 7,0.62 1.9,2.62 0.28,4.89 -1.9,6.31 -2.52,1.63 -2.78,3 -1.79,6 2,5.88 -0.27,8.95 -5.46,8.79 -4.14,-0.13 -5.71,-2 -4.73,-6.1 0.98,-4.1 -0.72,-6 -4.51,-5.83 -4.34,0.16 -8.55,-0.98 -13.82,-1.2 z m 4,-8.4 c 2.76,-0.45 5.47,2.94 7.68,0.23 0.72,-0.89 -0.12,-3.94 -1.37,-4.3 -3.02,-0.86 -4.45,2.11 -6.31,4.07 z"
       transform="translate(-383.92,-115.6)"
       id="path10735" /><path
       class="cls-2"
       d="m 586,126 a 21.28,21.28 0 0 0 0,3 c 0.22,1.56 -1,3.82 0.66,4.55 1.88,0.82 3.87,-0.56 5.35,-1.91 2.56,-2.33 4.93,-4.92 6.13,-8.2 0.88,-2.37 2.41,-3 4.6,-2.75 2.19,0.25 2.92,2 3.11,3.86 a 10.24,10.24 0 0 1 -2.45,8.18 c -4.65,5.61 -11.51,8.18 -16.62,13.07 -0.89,0.85 -2.69,1 -2.5,2.64 0.19,1.64 1.83,2.31 3.24,2.71 3.18,0.9 6.4,1.74 9.64,2.37 3.56,0.7 4.22,3 3.41,5.94 -1,3.45 -3.68,3.31 -6.45,2.42 -0.94,-0.3 -1.79,-0.95 -2.74,-1.16 -2.09,-0.47 -4.41,-1.46 -6.3,-0.95 -2.37,0.63 -0.85,3.41 -1.27,5.2 -0.72,3.08 -2.77,3.44 -5.25,3.27 -2.76,-0.19 -4,-2.23 -3.51,-4.47 1.24,-5.17 1.16,-9.39 -3.29,-13.42 -2.62,-2.36 -0.75,-6.9 2.77,-7.55 2.18,-0.4 2.11,-1.39 2.28,-3 a 103.87,103.87 0 0 0 1,-17.88 8.38,8.38 0 0 1 0.93,-4.81 c 0.88,-1.5 2.41,-1.61 4,-1.49 2.08,0.15 2.89,1.63 3,3.37 0.18,2.31 0,4.64 0,7 z"
       transform="translate(-383.92,-115.6)"
       id="path10737" /><path
       class="cls-2"
       d="m 576.59,490.25 c 4.8,0 9.71,-0.08 14.61,0 2.75,0.06 5.71,0.48 5.67,4.08 -0.04,3.6 -2.65,4 -5.64,4 -4.57,0 -9.06,-0.27 -13.64,1.54 -2.91,1.15 -7.72,2 -9.65,-1.39 a 12.36,12.36 0 0 1 0.39,-12.82 c 1.59,-2.39 1.88,-3.55 -0.15,-5.83 -2.03,-2.28 -1.61,-5.12 1.8,-6.18 2.31,-0.72 4.18,-2 4.13,-4.25 -0.07,-3.83 2,-4.76 5.13,-5.3 3.13,-0.54 6,-1.61 9.1,-2.32 2.7,-0.63 5.62,-1 6.3,2.7 0.68,3.7 -1.75,5.58 -5.08,5.8 -2.29,0.15 -4,1.54 -6.11,1.94 -1.44,0.27 -1.75,1.59 -1.67,2.71 0.12,1.82 1.72,1 2.71,1.16 2.37,0.26 4,-1.37 5.75,-2.55 2.25,-1.52 4.63,-1.77 6,0.71 1.37,2.48 1.74,5.67 -1.33,7.45 -2.82,1.64 -5.83,3.09 -9.39,2.61 -4.68,-0.59 -8.59,0.19 -8.93,5.94 z"
       transform="translate(-383.92,-115.6)"
       id="path10739" /><path
       class="cls-2"
       d="m 528.37,477.33 c 2.2,0.6 5,0.11 5.41,3.32 0.48,3.38 -1.9,4.12 -4.25,5.14 -3.77,1.64 -6,5.73 -10.46,6.46 -1.46,0.24 -1.12,2.23 -0.91,3.53 0.26,1.55 1.54,1 2.35,0.79 3.67,-1 7.57,0.28 11.23,-1.69 1.9,-1 4.35,-0.39 4.94,2.52 0.55,2.75 0.7,6.47 -2.53,6.45 -5.88,0 -11.14,2.91 -17,2.52 -6.92,-0.48 -8.32,-2.17 -7.52,-8.93 a 35.79,35.79 0 0 0 0.15,-9.47 c -1.75,-11.52 11.7,-19.7 19.61,-20.55 2.37,-0.26 4.75,0.14 5.35,3.19 0.6,3.05 -1.34,4.06 -3.7,4.92 -0.82,0.3 -2.1,-0.21 -2.67,1.8 z"
       transform="translate(-383.92,-115.6)"
       id="path10741" /><path
       class="cls-2"
       d="m 493.94,474.2 c -0.32,9.49 -3.09,18 -10,24.89 -3.64,3.63 -4.08,9.28 -8.44,12.62 -3.79,2.91 -9.93,3.57 -14.22,0.58 -3.48,-2.43 -5.58,-9.9 -3.83,-13.56 a 3.52,3.52 0 0 1 3.61,-2.08 3.6,3.6 0 0 1 3.66,2.68 c 0.88,2.25 -0.1,6.26 3.62,6.15 3.07,-0.1 3.21,-3.57 4.28,-6 a 19.52,19.52 0 0 1 4.51,-5.78 c 3.2,-3.06 4.4,-7 6.24,-10.83 2.54,-5.32 2.07,-10.47 2.65,-15.75 a 3.66,3.66 0 0 1 4,-3.59 c 2.48,0 3.69,1.47 3.89,3.66 0.2,2.19 0.03,4.68 0.03,7.01 z"
       transform="translate(-383.92,-115.6)"
       id="path10743" /><path
       class="cls-2"
       d="m 709.74,380.92 c 1,0.91 0.4,4 3.46,2.21 1.47,-0.87 2.9,0.24 3.19,2 0.26,1.54 0.1,3 -1.75,3.62 -4.1,1.49 -8.07,3.41 -12.25,4.56 -10.4,2.84 -19.55,7.82 -28.21,14.21 -5.53,4.09 -11.92,7 -18,10.37 -3.78,2.08 -7.75,3.52 -10.63,7.28 -3.88,5.05 -9.44,8.44 -14.78,11.88 -1.7,1.1 -3.5,1.36 -4.83,-0.46 -1.33,-1.82 0.17,-3.39 1.48,-4.11 9.9,-5.48 16.21,-15.47 27.11,-20.1 9.67,-4.1 18.3,-10.71 27.2,-16.5 5.26,-3.43 11.11,-5.16 16.91,-7.18 3.31,-1.15 6.51,-2.58 9.76,-3.88 z"
       transform="translate(-383.92,-115.6)"
       id="path10745" /><path
       class="cls-1"
       d="m 490.83,165.36 c 2.21,-4.67 2.4,-11.16 5.37,-16.35 2.66,-4.67 3.74,-9.79 6.06,-14.48 0.81,-1.64 0.42,-2.89 -0.87,-4.32 a 15.72,15.72 0 0 1 -2.87,-5.14 c -0.71,-2 -0.64,-4.2 1.64,-5.11 2,-0.8 4.8,-1.19 5.82,1.06 1.47,3.24 4,4 6.92,4.68 2.41,0.58 5.08,1.53 5,4.63 -0.08,3.1 -2,4.32 -5.12,3.89 -1.25,-0.18 -1.62,0.85 -2,1.82 -3.91,10.59 -8,21.12 -11.62,31.81 -0.95,2.83 -1,5.88 -4.86,5.28 -3.86,-0.6 -3.23,-4 -3.47,-7.77 z"
       transform="translate(-383.92,-115.6)"
       id="path10747" /><path
       class="cls-2"
       d="m 704.2,281.63 c 3.24,0.28 6,-0.47 6.16,2.73 0.16,3.2 -2.72,1.89 -4.42,2.5 a 74,74 0 0 0 -19.23,10.4 c -6.42,4.82 -11.52,11.12 -19.6,14.13 -4.06,1.52 -8.22,1.05 -12.28,2.84 a 70.49,70.49 0 0 0 -12.62,7.52 c -4.68,3.36 -9.94,5.43 -14.9,8.15 -1.53,0.83 -3.17,1.66 -4.27,-0.4 -1.1,-2.06 0.3,-3.52 2,-4.35 10.37,-5.21 19.31,-13.1 30.51,-16.72 4,-1.28 8.2,-1.07 12.15,-3.16 6.94,-3.66 11.58,-10 18,-14.17 6.12,-3.97 12.3,-8 18.5,-9.47 z"
       transform="translate(-383.92,-115.6)"
       id="path10749" /><path
       class="cls-1"
       d="m 709.74,380.92 -1.33,3.92 c -2.56,0.16 -4.07,-0.66 -4,-3.61 0.1,-6.92 0.13,-13.8 3,-20.34 a 16.28,16.28 0 0 0 1.13,-6.75 c -0.15,-11.76 0.12,-23.52 -1,-35.27 -0.57,-6.1 0.72,-12.07 2.4,-18 0.88,-3.09 0.58,-6.58 0.46,-9.87 -0.1,-2.7 1.17,-3.8 3.47,-4.66 a 2.61,2.61 0 0 1 3.13,0.66 1.92,1.92 0 0 1 0,2.72 c -2.13,1.85 -1.61,4.29 -1.43,6.49 0.72,8.35 -4.44,16 -3,24.34 1.27,7.57 0.74,15.2 1,22.8 0.38,9.95 -0.23,19.72 -3.48,29.21 -1.01,2.79 -0.73,5.57 -0.35,8.36 z"
       transform="translate(-383.92,-115.6)"
       id="path10751" /><path
       class="cls-2"
       d="m 630.88,468.71 a 83.78,83.78 0 0 1 -1,19.36 26,26 0 0 1 -0.65,2.91 c -1,3.3 -2.71,6.28 -6.56,5 -3.85,-1.28 -2.64,-4.57 -1.78,-7.58 2.47,-8.57 2,-17.4 2,-26.17 0,-2 0.08,-4 0.27,-6 0.22,-2.29 1.4,-3.57 3.89,-3.6 2.49,-0.03 3.71,1.46 3.8,3.66 0.15,4.32 0.03,8.64 0.03,12.42 z"
       transform="translate(-383.92,-115.6)"
       id="path10753" /><path
       class="cls-2"
       d="m 484.93,314 c -2.45,6.71 -5,13.19 -9.76,18.49 a 7.69,7.69 0 0 1 -3.24,2.06 c -1.38,0.46 -2.95,0.62 -4,-1 -1.16,-1.75 0.08,-2.8 1.14,-3.81 a 41.77,41.77 0 0 0 7.85,-10.65 22.32,22.32 0 0 0 1.95,-16.3 c -0.59,-2.44 0.07,-3.58 2.16,-4 2.09,-0.42 4.36,-0.19 4.37,2.59 0,2.48 1.49,4.33 2.24,6.41 1.82,5 6.52,6.7 12.18,4.74 2.17,-0.75 4.38,-1.73 5.46,1 1.08,2.73 -1.69,3.23 -3.34,3.92 -6.39,2.77 -12.16,1.8 -17.01,-3.45 z"
       transform="translate(-383.92,-115.6)"
       id="path10755" /><path
       class="cls-1"
       d="m 641.92,400.24 c -0.49,0.88 2.63,5.33 -2,5.31 -4.07,0 -2.15,-4.08 -2.38,-6.39 -0.3,-3.1 -1.59,-6.07 -1.11,-9.29 0.27,-1.72 0.94,-2.93 2.71,-2.9 a 2.31,2.31 0 0 1 2.34,2.64 c -0.1,3.14 1.79,6.06 0.44,10.63 z"
       transform="translate(-383.92,-115.6)"
       id="path10757" /><path
       class="cls-2"
       d="m 696.46,349.08 c -0.11,4.79 -2.75,7.63 -5.88,10.14 a 2.29,2.29 0 0 1 -3.48,-0.35 2.9,2.9 0 0 1 0.06,-4 c 1.92,-2.23 4.11,-4.19 4.61,-7.38 a 2.07,2.07 0 0 1 2.76,-1.43 2.46,2.46 0 0 1 1.93,3.02 z"
       transform="translate(-383.92,-115.6)"
       id="path10759" /><path
       class="cls-2"
       d="m 632.38,399 c 0.62,3.53 -1.64,6.16 -2.1,9.24 -0.2,1.35 -1.5,1.68 -2.77,1.46 a 2.19,2.19 0 0 1 -2,-2.45 c 0.62,-4 1.39,-8 2.31,-12 a 2.19,2.19 0 0 1 2.46,-1.3 2.14,2.14 0 0 1 2.06,1.81 21.13,21.13 0 0 1 0.04,3.24 z"
       transform="translate(-383.92,-115.6)"
       id="path10761" /><path
       class="cls-2"
       d="m 633,506.14 c 0,3.08 -1.09,5.24 -4.56,5.21 -2.49,0 -4.38,-1.21 -4.17,-3.84 0.21,-2.79 0.89,-5.67 4.65,-5.84 3.14,-0.15 3.89,1.91 4.08,4.47 z"
       transform="translate(-383.92,-115.6)"
       id="path10763" /><path
       class="cls-1"
       d="m 698.65,319.14 c -1.21,2.12 1.88,6.57 -2.86,6.41 -4,-0.13 -2.29,-4.13 -2.22,-6.38 0.07,-2.52 -2,-7.1 2.63,-7 4.09,0.15 1.39,4.57 2.45,6.97 z"
       transform="translate(-383.92,-115.6)"
       id="path10765" /><path
       class="cls-2"
       d="m 672.44,358.82 c -0.36,-3 2.22,-4.63 2.95,-7.1 0.25,-0.82 1.64,-1.06 2.65,-0.56 a 2.28,2.28 0 0 1 1.41,2.41 71.52,71.52 0 0 1 -1.25,7.73 c -0.48,2 -2.33,1.64 -3.75,1.37 -2.17,-0.42 -2.08,-2.24 -2.01,-3.85 z"
       transform="translate(-383.92,-115.6)"
       id="path10767" /><path
       class="cls-2"
       d="m 665.42,384.13 c 0.05,-2.22 -0.52,-4.73 2.21,-5.1 3,-0.39 2.59,2.09 2.9,4.08 0.31,1.99 1.11,3.76 1,5.8 -0.11,1.46 -0.39,2.65 -2.1,2.83 a 2.45,2.45 0 0 1 -2.88,-2.12 c -0.55,-1.9 -1.63,-3.69 -1.13,-5.49 z"
       transform="translate(-383.92,-115.6)"
       id="path10769" /><path
       class="cls-2"
       d="m 659.06,321.86 c 1.11,0.24 2.13,0.71 2.34,2.06 0.18,1.1 0,2.23 0.87,3.22 1.6,1.8 2.23,4.08 -0.19,5.37 -2.42,1.29 -3.94,-1.12 -5.06,-2.8 -1.86,-2.8 -0.44,-7.81 2.04,-7.85 z"
       transform="translate(-383.92,-115.6)"
       id="path10771" /><path
       class="cls-2"
       d="m 696.44,371.47 c 0,1.59 0,2.76 0,3.92 a 2.13,2.13 0 0 1 -2,2.35 2.34,2.34 0 0 1 -2.86,-2.1 13.6,13.6 0 0 1 -0.07,-3.49 c 0.25,-2.27 -1.21,-5.89 2.45,-6 3.96,-0.15 1.89,3.66 2.48,5.32 z"
       transform="translate(-383.92,-115.6)"
       id="path10773" /><path
       class="cls-2"
       d="m 669.44,359.86 c 0,1.15 0,2.3 0,3.45 0,1.54 -0.79,2.48 -2.42,2.45 a 2.23,2.23 0 0 1 -2.45,-2 62.62,62.62 0 0 1 0,-7.87 2.25,2.25 0 0 1 2.42,-2 2.34,2.34 0 0 1 2.45,2.5 c 0.01,1.17 0,2.32 0,3.47 z"
       transform="translate(-383.92,-115.6)"
       id="path10775" /><path
       class="cls-2"
       d="m 632.5,374.44 c -0.58,1.83 1.36,5.17 -2.43,5.23 -3.61,0.06 -2.53,-3.11 -2.61,-5.19 -0.08,-2.08 -0.73,-5.36 2.5,-5.44 3.51,-0.04 2.2,3.24 2.54,5.4 z"
       transform="translate(-383.92,-115.6)"
       id="path10777" /><path
       class="cls-2"
       d="m 647.51,333.64 c -0.45,1.87 1,5.05 -2.39,5 -4,0 -2.44,-3.57 -2.65,-5.77 -0.21,-2.2 -0.47,-5 2.63,-4.84 3.53,0.23 1.97,3.52 2.41,5.61 z"
       transform="translate(-383.92,-115.6)"
       id="path10779" /><path
       class="cls-2"
       d="m 647.62,367.22 c -0.31,4.17 -1.88,6 -4.49,6.46 a 2.26,2.26 0 0 1 -2.59,-3.13 c 0.85,-2.27 1.51,-5.34 4.62,-5.54 a 2.24,2.24 0 0 1 2.46,2.21 z"
       transform="translate(-383.92,-115.6)"
       id="path10781" /><path
       class="cls-2"
       d="m 692.45,321.83 c 0,2 0.15,4.18 -2.55,3.87 -3.31,-0.38 -2.72,-3.61 -3.38,-5.73 a 2.27,2.27 0 0 1 2.39,-3 c 2.67,0.32 3.86,2.25 3.54,4.86 z"
       transform="translate(-383.92,-115.6)"
       id="path10783" /><path
       class="cls-2"
       d="m 654.43,389 c -0.11,-1.93 0.05,-4.07 2.45,-4.08 3.25,0 2.74,3.26 3.43,5.2 0.61,1.73 -0.74,2.59 -2.59,2.67 -2.72,0.13 -3.41,-1.45 -3.29,-3.79 z"
       transform="translate(-383.92,-115.6)"
       id="path10785" /><path
       class="cls-2"
       d="m 685.46,378.35 c 0,1.92 -0.27,3.69 -2.6,3.35 -2.58,-0.37 -3,-2.71 -3.37,-4.77 a 2.36,2.36 0 0 1 2.48,-3 3.74,3.74 0 0 1 3.49,4.42 z"
       transform="translate(-383.92,-115.6)"
       id="path10787" /><path
       class="cls-2"
       d="m 633.45,344.11 c 0,1.89 0,3.84 -2.65,3.61 -2.65,-0.23 -2.37,-2.2 -2.39,-4 0,-2 0.45,-3.86 2.79,-3.7 2.34,0.16 2.32,2.25 2.25,4.09 z"
       transform="translate(-383.92,-115.6)"
       id="path10789" /><path
       class="cls-1"
       d="m 589.82,375.76 c -3,0.29 -5.73,0 -6.41,-3.71 0,-0.16 0.05,-0.38 0,-0.48 -1.11,-1.43 -4.94,-0.55 -3.64,-3.93 1.3,-3.38 3.87,-5.51 6.87,-7.27 A 19.53,19.53 0 0 1 598,357.74 c 4.28,0.26 5.84,2.26 4,6 a 112.66,112.66 0 0 1 -6.27,10.41 c -1.49,2.32 -3.86,1.48 -5.91,1.61 z m 4.57,-10.39 c 0,-1.52 -0.87,-1.92 -1.58,-1.48 -1.75,1.07 -4.89,0.81 -4.57,4 0.1,1 -0.51,2.95 1.73,2.85 3.73,-0.16 1.72,-4.74 4.42,-5.37 z"
       transform="translate(-383.92,-115.6)"
       id="path10791" /><path
       class="cls-1"
       d="m 554.21,387.78 c -1.9,-0.09 -4.61,0.55 -4.62,-2.3 a 79,79 0 0 1 1.22,-12.16 c 0.17,-1.07 1.89,-2.06 2.79,-1.26 2.88,2.57 6.24,1.49 9.42,1.67 1.68,0.1 3.71,-0.11 4.19,1.8 0.48,1.91 0.78,3.83 -0.58,5.68 a 14.9,14.9 0 0 1 -12.42,6.57 z"
       transform="translate(-383.92,-115.6)"
       id="path10793" /><path
       class="cls-1"
       d="m 526.6,418.78 c -2.92,-0.45 -7.65,1.85 -7.22,-4.68 0.58,-8.85 3.14,-11.4 9.08,-11.35 5.48,0.05 8,3 8,9.44 0,6.44 -0.39,6.59 -9.86,6.59 z M 524.47,412 c -0.47,2.47 1.57,1.73 2.85,1.71 1.65,0 3.95,0.71 4.06,-2.13 0.07,-2 -1.3,-3.75 -3.09,-3.5 -1.79,0.25 -3.91,1.09 -3.82,3.92 z"
       transform="translate(-383.92,-115.6)"
       id="path10795" /><path
       class="cls-1"
       d="m 558.54,414.78 c -2,-0.52 -5.34,1.38 -6.54,-1.3 -1.47,-3.29 -0.63,-7.16 -0.33,-10.77 a 2.2,2.2 0 0 1 2.13,-1.8 c 1.23,-0.07 2.52,0.63 2.52,1.87 0,5 3.15,3 5.37,2.43 2,-0.47 3.9,-2.6 5.9,-0.53 1.8,1.87 1.22,4.56 0.55,6.56 a 5,5 0 0 1 -5.8,3.57 27.78,27.78 0 0 0 -3.8,-0.03 z"
       transform="translate(-383.92,-115.6)"
       id="path10797" /><path
       class="cls-1"
       d="m 523.52,375.09 c -0.22,-2.27 0.33,-3.55 1.69,-4 1.68,-0.57 2.58,0.41 3.36,2 1.61,3.27 2.68,7 7.54,7.38 2,0.15 1.63,2.71 1,4.18 -0.8,2 -0.88,4.79 -3.89,5.11 -1.87,0.2 -2.58,-1 -2.9,-2.65 -0.13,-0.73 -0.75,-2 -1.17,-2 -8.56,-0.11 -2.29,-8.05 -5.63,-10.02 z"
       transform="translate(-383.92,-115.6)"
       id="path10799" /></g></svg>
