<?xml version="1.0" encoding="UTF-8" standalone="no"?>
<svg
   height="392.1px"
   width="486.25px"
   version="1.1"
   id="svg6"
   sodipodi:docname="pue_talolle_villapaita.svg"
   inkscape:version="1.2 (dc2aedaf03, 2022-05-15)"
   xml:space="preserve"
   xmlns:inkscape="http://www.inkscape.org/namespaces/inkscape"
   xmlns:sodipodi="http://sodipodi.sourceforge.net/DTD/sodipodi-0.dtd"
   xmlns="http://www.w3.org/2000/svg"
   xmlns:svg="http://www.w3.org/2000/svg"
   xmlns:rdf="http://www.w3.org/1999/02/22-rdf-syntax-ns#"
   xmlns:cc="http://creativecommons.org/ns#"
   xmlns:dc="http://purl.org/dc/elements/1.1/"><metadata
     id="metadata12"><rdf:RDF><cc:Work
         rdf:about=""><dc:format>image/svg+xml</dc:format><dc:type
           rdf:resource="http://purl.org/dc/dcmitype/StillImage" /></cc:Work></rdf:RDF></metadata><defs
     id="defs10"><style
       id="style1970">.cls-1{fill:#131313;}.cls-2{fill:#1a1b1b;}</style></defs><sodipodi:namedview
     pagecolor="#ffffff"
     bordercolor="#666666"
     borderopacity="1"
     objecttolerance="10"
     gridtolerance="10"
     guidetolerance="10"
     inkscape:pageopacity="0"
     inkscape:pageshadow="2"
     inkscape:window-width="1920"
     inkscape:window-height="1001"
     id="namedview8"
     showgrid="false"
     inkscape:zoom="1"
     inkscape:cx="-131.5"
     inkscape:cy="81.5"
     inkscape:window-x="-9"
     inkscape:window-y="-9"
     inkscape:window-maximized="1"
     inkscape:current-layer="svg6"
     inkscape:showpageshadow="2"
     inkscape:pagecheckerboard="0"
     inkscape:deskcolor="#d1d1d1" /><g
     transform="matrix(1.0, 0.0, 0.0, 1.0, -46.05, -15.2)"
     id="g4"><path
       d="m 454.2,28.75 c -1.66667,0.03333 -2.9,1.066667 -3.7,3.1 -2.8,7.066667 -2.73333,14.3 0.2,21.7 0.33333,0.8 0.85,1.516667 1.55,2.15 3.36667,2.966667 6.96667,2.916667 10.8,-0.15 l 3.15,-2.8 m 3,-12 c 0.83333,-0.833333 2.16667,-1.283333 4,-1.35 1.5,-0.03333 2.86667,-0.533333 4.1,-1.5 l 1.65,-1.4 1.25,-1.75 m -7,-5 c -1.8,0.533333 -2.98333,1.816667 -3.55,3.85 l -0.9,3.3 c -0.36667,1.233333 -0.61667,2.516667 -0.75,3.85 -0.4,3.366667 0.0333,6.35 1.3,8.95 1.4,2.966667 3.96667,3.8 7.7,2.5 l 2.3,-1.3 1.8,-1.25 1.1,-0.9 m -14,-21 c 1.96667,-1.9 4.98333,-2.716667 9.05,-2.45 4.26667,0.3 8.25,-0.216667 11.95,-1.55 m -59,3 c -0.63333,-1.533333 -1.08333,-1.216667 -1.35,0.95 l -0.5,3.1 c -1.26667,5.766667 -1.7,11.75 -1.3,17.95 0.1,1.333333 0.3,2.633333 0.6,3.9 0.63333,2.466667 2.18333,4.033333 4.65,4.7 l 2.9,0.3 c 4.96667,-0.366667 9.3,-2 13,-4.9 M 439.95,73 443.9,71.9 c 6.93333,-2.2 13.95,-2.5 21.05,-0.9 m -51,12 h -1 l -1.55,0.15 -0.9,11.9 c -0.0333,0.633333 0.21667,1.133333 0.75,1.5 l 1.7,0.45 M 411.4,83.15 c 0.43333,-4.733333 0.95,-9.45 1.55,-14.15 -2.53333,1.133333 -4.76667,2.883333 -6.7,5.25 l -3.6,4.5 -3.2,4.15 c 3.16667,1.633333 6.71667,1.816667 10.65,0.55 l 1.3,-0.3 M 430.95,70 c -1.83333,4.733333 -3.46667,10.066667 -4.9,16 -0.53333,2.133333 -0.23333,3.466667 0.9,4 m 18,9 c 1.13333,-5.666667 2.61667,-11.4 4.45,-17.2 0.36667,-1.2 0.55,-2.466667 0.55,-3.8 v -1 m 9,23 c 1.5,-2.833333 3.56667,-6.116667 6.2,-9.85 l 0.1,-0.15 9.8,-13.95 0.9,-1.05 c 1.2,4.3 1.71667,8.966667 1.55,14 -0.0333,1.666667 0.0833,3.333333 0.35,5 l 1.1,6 m -13.7,-10 9.7,-0.9 1,-0.1 m -118.01915,-48.571963 -1.6,-11.95 c -0.23333,-2 -0.78333,-3.35 -1.65,-4.05 -3.2,3.133333 -5.21667,7.466667 -6.05,13 0.63333,2.866667 3,3.933333 7.1,3.2 l 2.2,-0.2 0.45,3.05 0.7,3.85 c 0.0667,0.4 0.26667,0.766667 0.6,1.1 M 328,73 c -5.03333,4.7 -6.46667,10.4 -4.3,17.1 0.6,1.966667 1.45,3.883333 2.55,5.75 0.83333,1.466667 2.08333,2.183333 3.75,2.15 1.8,-0.03333 3.56667,-0.533333 5.3,-1.5 1.13333,-0.666667 2.33333,-1.266667 3.6,-1.8 2.5,-1 4.9,-2.216667 7.2,-3.65 l 1.8,-3.1 3.05,-4.95 c 2.63333,-4.533333 5.96667,-8.533333 10,-12 1.96667,0.3 2.76667,1.65 2.4,4.05 -0.26667,1.633333 -0.4,3.283333 -0.4,4.95 V 98 M 351,89 c -1.03333,-1.8 -0.0167,-2.583333 3.05,-2.35 l 7.9,0.35 m 16,-1 c 0.33333,0.333333 0.68333,0.516667 1.05,0.55 h 0.1 l 1.5,-5.65 c 1.13333,-4.333333 3.68333,-7.816667 7.65,-10.45 0.46667,-0.3 0.93333,-0.3 1.4,0 0.53333,0.366667 0.95,0.883333 1.25,1.55 1.26667,2.666667 1.21667,5.3 -0.15,7.9 -2.5,4.766667 -6.38333,6.983333 -11.65,6.65 l -1.7,6.55 c -1.03333,4.033333 -0.51667,6.666667 1.55,7.9 m 14,-1 c -2.26667,-1.533333 -2.33333,-3.916667 -0.2,-7.15 l 2.4,-3.7 4.3,-6.25 -1.5,-0.9 M 347.68085,50.428037 c 0.0333,-4.4 0.35,-8.733333 0.95,-13 M 343,101 c 0.4,-3.466667 1.43333,-6.783333 3.1,-9.95 M 290,23 c -2.13333,3.4 -2.91667,7.416667 -2.35,12.05 0.73333,5.733333 1.96667,11.35 3.7,16.85 1.23333,3.933333 3.71667,5.4 7.45,4.4 0.8,-0.2 1.53333,-0.633333 2.2,-1.3 l 4,-4 M 289,37 c 2.8,0.333333 5.48333,0.95 8.05,1.85 1.23333,0.433333 2.21667,0.15 2.95,-0.85 M 286,26 c 0.7,-2.133333 2.36667,-3.266667 5,-3.4 l 4,-0.6 c 4.23333,-1.033333 8.56667,-1.7 13,-2 m -61,41 c -2.1,-0.233333 -3.25,-1.55 -3.45,-3.95 l -0.15,-2.1 c -0.96667,-8.1 0.23333,-15.75 3.6,-22.95 1,-2.2 2.4,-3.733333 4.2,-4.6 0.53333,-0.266667 1.13333,-0.433333 1.8,-0.5 2.9,-0.366667 4.38333,1 4.45,4.1 l 0.3,2.05 c 0.76667,3.466667 -0.0833,5.9 -2.55,7.3 -0.8,0.433333 -1.5,1 -2.1,1.7 -2.2,2.6 -4.73333,3.75 -7.6,3.45 L 246,44 m 23,-16 c -0.66667,-1 -1.33333,-0.333333 -2,2 -1.83333,6.166667 -1.43333,12.133333 1.2,17.9 0.96667,2.1 2.86667,2.7 5.7,1.8 L 275,49 c 4.4,-4.7 6.73333,-10.366667 7,-17 m -22,44 c 1.53333,4.666667 2.65,9.65 3.35,14.95 0.1,0.7 0.33333,1.383333 0.7,2.05 1.96667,3.7 4.95,5.7 8.95,6 0.63333,-5.366667 1.75,-10.666667 3.35,-15.9 0.43333,-1.4 0.96667,-2.766667 1.6,-4.1 1.26667,-2.7 2.28333,-5.366667 3.05,-8 m 11,-2 c -1.6,7.1 -2.83333,14.45 -3.7,22.05 -0.2,1.633333 -0.3,3.283333 -0.3,4.95 m 14,-23 c -0.83333,2.866667 -1.2,5.533333 -1.1,8 0.1,3.1 0.0167,6.116667 -0.25,9.05 -0.1,0.966667 -0.1,1.966667 0,3 0.33333,3.7 2.43333,5.233333 6.3,4.6 0.7,-0.1 1.36667,-0.35 2,-0.75 L 314,93"
       id="path2"
       inkscape:connector-curvature="0"
       style="fill:none;stroke:#000000;stroke-width:2.75;stroke-linecap:round;stroke-linejoin:round"
       sodipodi:nodetypes="ccccccccccccccccccccccccccccccccccccccccccccccccccccsccccccccccccccccccccccccccccccccsccccccccccccccccccccccccccccsccccccccccccccccccccccccccccccccccccccccccc" /></g><path
     style="fill:none;fill-opacity:1;stroke:#000000;stroke-width:2.6;stroke-linecap:round;stroke-linejoin:round;stroke-miterlimit:4;stroke-dasharray:none;stroke-dashoffset:0;stroke-opacity:1"
     d="m 278.22712,8.615799 c 0.71339,0 1.42679,0 2.14018,0 0.0713,0 0.14268,0 0.21402,0 0.0713,0 0.16358,-0.05045 0.21402,0 0.0505,0.05044 -0.0504,0.163574 0,0.214018 0.0751,0.07512 0.92226,-0.07391 1.07009,0 0.0902,0.04512 0.12378,0.1689 0.21402,0.214019 0.0553,0.02767 1.13242,0 1.28411,0 0.0713,0 0.16358,-0.05044 0.21402,0 0.0505,0.05045 -0.0504,0.163574 0,0.214018 0.0663,0.06627 1.00382,-0.06627 1.07009,0 0.0505,0.05044 -0.0504,0.163574 0,0.214019 0.0438,0.04375 0.5572,-0.04243 0.64206,0 0.0902,0.04512 0.12378,0.168899 0.21402,0.214018 0.0849,0.04243 0.5983,-0.04375 0.64205,0 0.0505,0.05045 -0.0504,0.163574 0,0.214019 0.10701,0.107009 0.53505,-0.107009 0.64206,0 0.0504,0.05045 -0.0505,0.163574 0,0.214018 0.0515,0.0515 0.80457,-0.0515 0.85607,0 0.0505,0.05044 -0.0504,0.163574 0,0.214019 0.0505,0.05044 0.14268,0 0.21402,0 0.42804,0 0.85607,0 1.28411,0 0.85608,0 1.71215,0 2.56822,0 0.0713,0 0.14268,0 0.21402,0 0.0713,0 0.16358,-0.05045 0.21402,0 0.0504,0.05044 -0.0504,0.163574 0,0.214018 0.0504,0.05045 0.14268,0 0.21402,0 0.49938,0 0.99875,0 1.49813,0 0.3567,0 0.71339,0 1.07009,0 0.0713,0 0.16357,-0.05044 0.21402,0 0.0504,0.05045 -0.0505,0.163574 0,0.214019 0.0504,0.05045 0.14268,0 0.21402,0 0.3567,0 0.71339,0 1.07009,0 0.0713,0 0.16357,-0.05044 0.21402,0 0.0504,0.05045 -0.0505,0.163573 0,0.214018 0.0504,0.05044 0.14268,0 0.21402,0 0.0713,0 0.14268,0 0.21402,0 0.57071,0 1.14143,0 1.71214,0"
     id="path824"
     inkscape:connector-curvature="0" /><path
     style="fill:none;fill-opacity:1;stroke:#000000;stroke-width:2.6;stroke-linecap:round;stroke-linejoin:round;stroke-miterlimit:4;stroke-dasharray:none;stroke-dashoffset:0;stroke-opacity:1"
     d="m 288.92804,11.184021 c -1.67481,-0.24916 -0.15638,0.798439 -0.42803,1.070092 -0.0505,0.05044 -0.16358,-0.05044 -0.21402,0 -0.0505,0.05044 0.0504,0.163574 0,0.214019 -0.0505,0.05044 -0.16358,-0.05044 -0.21402,0 -0.10089,0.100889 0.0638,0.300421 0,0.428037 -0.0451,0.09024 -0.1689,0.12378 -0.21402,0.214018 -0.0319,0.06381 0.0505,0.163574 0,0.214019 -0.0504,0.05044 -0.16357,-0.05044 -0.21402,0 -0.10089,0.100889 0.10089,0.327147 0,0.428036 -0.0504,0.05044 -0.16357,-0.05044 -0.21402,0 -0.0504,0.05044 0.0505,0.163574 0,0.214019 -0.0504,0.05044 -0.16357,-0.05044 -0.21401,0 -0.10089,0.100889 0.0638,0.300421 0,0.428037 -0.0451,0.09024 -0.1689,0.12378 -0.21402,0.214018 -0.0319,0.06381 0.0504,0.163574 0,0.214019 -0.0505,0.05044 -0.16358,-0.05044 -0.21402,0 -0.14275,0.142751 0.14275,0.285286 0,0.428037 -0.0505,0.05044 -0.16358,-0.05045 -0.21402,0 -0.10089,0.100889 0.10089,0.327148 0,0.428037 -0.0505,0.05044 -0.16357,-0.05044 -0.21402,0 -0.0504,0.05044 0.0319,0.15021 0,0.214018 -0.0451,0.09024 -0.1689,0.123781 -0.21402,0.214019 -0.0319,0.06381 0.0505,0.163574 0,0.214018 -0.0504,0.05044 -0.16357,-0.05044 -0.21402,0 -0.10089,0.10089 0.0638,0.300421 0,0.428037 -0.0451,0.09024 -0.1689,0.123781 -0.21401,0.214019 -0.0319,0.06381 0.0319,0.15021 0,0.214018 -0.0451,0.09024 -0.1689,0.123781 -0.21402,0.214019 -0.0319,0.06381 0.0504,0.163574 0,0.214018 -0.0505,0.05044 -0.16358,-0.05044 -0.21402,0 -0.0515,0.0515 0.0515,0.804575 0,0.856074 -0.0505,0.05044 -0.16358,-0.05044 -0.21402,0 -0.0663,0.06627 0.0663,1.003822 0,1.070093 -0.0504,0.05044 -0.16357,-0.05044 -0.21402,0 -0.0437,0.04375 0.0424,0.557198 0,0.642055 -0.0451,0.09024 -0.1689,0.12378 -0.21402,0.214019 -0.0673,0.134515 0.0673,0.721558 0,0.856074 -0.0451,0.09024 -0.1689,0.12378 -0.21402,0.214018 -0.0424,0.08486 0.0438,0.598302 0,0.642055 -0.0504,0.05044 -0.16357,-0.05044 -0.21401,0 -0.10701,0.10701 0.10701,0.535047 0,0.642056 -0.0505,0.05044 -0.16358,-0.05044 -0.21402,0 -0.0515,0.0515 0.0515,0.804574 0,0.856074 -0.0505,0.05044 -0.16358,-0.05044 -0.21402,0 -0.0437,0.04375 0.0424,0.557199 0,0.642055 -0.0451,0.09024 -0.1689,0.123781 -0.21402,0.214019 -0.0638,0.127616 0.10089,0.327147 0,0.428037 -0.0504,0.05044 -0.16357,-0.05044 -0.21402,0 -0.10701,0.107009 0.10701,0.535046 0,0.642055 -0.0504,0.05044 -0.16357,-0.05044 -0.21402,0 -0.10701,0.107009 0.10701,0.535046 0,0.642056 -0.0504,0.05044 -0.16357,-0.05044 -0.21401,0 -0.10701,0.107009 0.107,0.535046 0,0.642055 -0.0505,0.05044 -0.16358,-0.05044 -0.21402,0 -0.0438,0.04375 0.0424,0.557199 0,0.642056 -0.0451,0.09024 -0.1689,0.12378 -0.21402,0.214018 -0.0424,0.08486 0.0437,0.598302 0,0.642056 -0.0505,0.05044 -0.16358,-0.05044 -0.21402,0 -0.10089,0.100889 0.10089,0.327147 0,0.428037 -0.0504,0.05044 -0.16357,-0.05044 -0.21402,0 -0.0437,0.04375 0.0424,0.557198 0,0.642055 -0.0451,0.09024 -0.1689,0.12378 -0.21402,0.214018 -0.0424,0.08486 0.0438,0.598303 0,0.642056 -0.0504,0.05044 -0.16357,-0.05044 -0.21402,0 -0.0663,0.06627 0.0663,1.003822 0,1.070092 -0.0504,0.05044 -0.16357,-0.05044 -0.21401,0 -0.0505,0.05044 0,0.142679 0,0.214019 0,0.07134 0,0.142679 0,0.214018 0,0.570716 0,1.141432 0,1.712148 0,0.07134 -0.0505,0.163574 0,0.214019 0.0504,0.05044 0.16357,-0.05044 0.21401,0 0.10089,0.100889 -0.10088,0.327147 0,0.428037 0.0505,0.05044 0.16358,-0.05045 0.21402,0 0.10089,0.100889 -0.10089,0.327147 0,0.428037 0.0505,0.05044 0.16358,-0.05044 0.21402,0 0.10089,0.100889 -0.10089,0.327147 0,0.428037 0.0505,0.05044 0.16358,-0.05045 0.21402,0 0.21112,0.211124 -0.43854,0.428037 0.21402,0.428037"
     id="path826"
     inkscape:connector-curvature="0" /><path
     style="fill:none;stroke:#000000;stroke-width:2.7;stroke-dasharray:none;stroke-linecap:round"
     d="m 324,12.5 c -1.0546,2.612777 0.93712,12.188652 0,15 -0.63039,1.891169 -2.52974,3.705396 -1,6 0.74088,1.111313 2.37979,0.83997 3.5,1 3.71847,0.53121 -0.45694,0.23274 2.5,1.5 3.16325,1.355679 1.5484,0.05425 4,0.5 2.49237,-0.414435 4.27711,1.555422 6.5,2"
     id="path842"
     sodipodi:nodetypes="csssscc" /><path
     style="fill:none;stroke:#000000;stroke-width:2.7;stroke-linecap:round;stroke-dasharray:none"
     d="m 360.44768,13.965359 c -3.59587,0.02792 -7.80202,-0.683255 -10.6066,2.12132 -0.2357,0.235703 -0.55804,0.408965 -0.70711,0.707107 -0.11785,0.294628 -0.2357,0.589256 -0.35355,0.883884 0,0.117851 0.0373,0.24175 0,0.353553 -0.99162,2.974874 0.39645,-2.278596 -0.70711,1.767767 -0.3515,1.288839 -0.67604,2.607019 -1.06066,3.889087 -0.0912,0.303941 -0.29132,0.572722 -0.35355,0.883884 -0.11556,0.577812 0.0731,1.183061 0,1.767767 -0.13148,1.051843 -0.54957,2.704766 0,3.71231 0.38637,0.70834 2.49944,2.535912 3.18198,2.828427 0.74679,0.320052 1.55572,0.512695 2.2981,0.883884 1.36932,0.68466 2.32094,1.260854 3.88908,1.59099 0.34314,0.07224 3.61873,0.428076 4.06587,0.353553 0.0167,-0.0028 3.14468,-2.54925 3.53553,-2.828427 0.64287,-0.459192 1.36847,-0.626727 1.59099,-1.59099 0.79091,-3.427274 -0.083,-0.349741 0.17678,-2.298097 0.0871,-0.653029 0.24525,-1.2947 0.35355,-1.944544 0.13642,-0.818473 0,-1.799753 0,-2.65165 0,-0.388321 -0.0697,-3.267809 -0.17677,-3.535534 -0.0489,-0.122337 -0.26039,-0.08361 -0.35356,-0.176777 -0.092,-0.09202 0.0121,-0.987969 0,-1.06066 -0.0705,-0.423148 -0.27681,-0.815372 -0.35355,-1.237437 -0.0745,-0.409945 -0.0272,-0.848543 -0.17678,-1.237437 -0.24903,-0.647474 -0.88309,-1.177196 -1.23743,-1.767766 -0.31385,-0.523074 -0.57004,-1.067917 -0.88389,-1.590991 -0.0873,-0.145549 -0.15366,-0.883883 -0.35355,-0.883883 -0.0833,0 -0.0977,0.150424 -0.17678,0.176776 -1.11471,0.371573 -0.51894,-0.188165 -1.59099,0.883884 z"
     id="path1522" /><path
     class="cls-1"
     d="m 44.21994,216.09947 c -4.56,-0.19 -7.76,2.53 -11.64,2.28 -1.74,-0.11 -3.94,-0.28 -3.32,-2.47 0.62,-2.19 3.72,-3.16 2.33,-6.79 -0.46,-1.2 4.57,-2.62 7.14,-3.88 7.23,-3.54 16,-3.1 22.47,-8 7.47,-5.64 16.72,-7.67 24.17,-13.28 2.41,-1.82 6.27,-1.63 9.34,-2.74 1.84,-0.66 4.72,-1 3.38,-4.42 a 2.12,2.12 0 0 1 1.37,-2.87 c 3.82,-0.7 6.82,-4 10.27,-4.31 6.91,-0.54 12,-4.67 17.9,-7.15 a 88.44,88.44 0 0 1 15.54,-5.43 37,37 0 0 0 17.58,-9.11 c 3.69,-3.53 7.89,-6.49 11.74,-9.68 2.91,-2.41 7.8,-3.87 12.4,-4 14.09,-0.34 28.15,0 42.07,2.2 4.2,0.66 8.34,1.56 12.59,2.09 4,0.5 5.49,4.8 7.36,8 a 1.84,1.84 0 0 1 -1.53,2.63 c -1.92,0.26 -4.68,0.9 -5.15,-1.56 -0.84,-4.44 -3.88,-3.84 -7,-4.4 -7.24,-1.29 -14.47,-2.44 -21.78,-3.21 -17.32,-1.83 -34,-2.31 -47.4,12.37 -5.07,5.54 -12.56,8.71 -20.64,10.19 -6.9,1.26 -13.45,4.53 -19.68,8 -3.46,1.94 -6.83,3.91 -11,3.78 a 2.27,2.27 0 0 0 -2.47,2 c -0.17,1.31 1.34,1.4 2.09,1.61 7.43,2.1 14.54,5.39 22.29,6.29 2.34,0.27 3.67,2.13 5.67,2.84 0.62,0.22 1.18,0.8 1.78,0.82 7.86,0.2 5.19,6.1 6.09,10.49 1.86,9.08 1.79,18.29 2.66,27.42 a 110.84,110.84 0 0 1 -1,27.76 c -2,12.61 -2.82,25.17 0.54,37.68 1.27,4.76 0.34,9.59 0.6,14.38 0.1,1.87 -1,2.88 -2.78,2.65 -10.78,-1.41 -21.16,2.59 -31.94,2.15 -12.47,-0.51 -25,0.37 -37.46,-0.25 -14.94,-0.73 -29.86,-0.89 -44.8,-0.84 -3.16,0 -5.41,-2.69 -8.74,-2.49 -1.2,0.07 -0.91,-2.06 -0.67,-3.69 a 272.6,272.6 0 0 1 7.25,-33.45 8.25,8.25 0 0 0 0.12,-3 c -1.32,-13.94 3.3,-26.44 9.19,-38.69 1.79,-3.56 0.95,-7.97 3.07,-11.92 z m 89.55,68.31 c -3,-3.23 -1.39,-6.86 -1.74,-10.17 -0.17,-1.64 0.24,-3.76 -2.51,-2.92 a 106.18,106.18 0 0 0 -11.73,4.06 c -1.53,0.68 -2.46,2.86 -4.63,1.55 a 2.51,2.51 0 0 1 -1.05,-3.08 c 0.63,-1.81 1.06,-4.48 3.44,-4.31 4.32,0.31 7.49,-2.41 11.25,-3.49 6.93,-2 10.37,0.21 10.17,7.24 -0.08,2.95 0.45,5.52 2.39,7.65 0.71,0.77 1.84,1.66 3,1.18 1.16,-0.48 0.58,-1.73 0.6,-2.63 0.06,-4.5 -0.25,-9 0.12,-13.49 0.9,-10.65 3.28,-21.2 2.85,-32 a 302.85,302.85 0 0 0 -2.88,-33.74 c -0.39,-2.53 -1.43,-2 -3,-1.48 a 87.59,87.59 0 0 1 -8.93,2.64 c -13.3,2.44 -26.72,1.45 -40.07,2.13 -3.88,0.2 -8.45,0.74 -11.82,2.47 -8.8,4.52 -18.49,4.87 -27.73,7.15 -2.24,0.55 -2.33,1.24 -2.58,3.07 -0.74,5.5 -1.42,11.1 -3.9,16.15 -5.52,11.25 -9.26,22.85 -8,35.6 a 21.81,21.81 0 0 1 -1,7.3 c -1.84,7.67 -4.35,15.13 -5.24,23.09 -0.63,5.62 2.87,5.74 6,5.81 12.61,0.3 25.21,0.64 37.81,0.9 21.36,0.43 42.77,1.11 64.13,-1.63 7.95,-1 8.2,-0.32 7.22,-8.4 -0.08,-0.65 -0.42,-1.27 -0.45,-1.91 -0.16,-3.35 -1.87,-4 -5.08,-3.93 -8.36,0.29 -16.77,-0.38 -25.09,0.24 -7.83,0.58 -12.21,-3.38 -11.38,-11.92 0.2,-2.09 -0.5,-5 2.61,-4.95 3.11,0.05 2.34,3 2.41,5 0.19,5 1.9,6.83 7,6.67 5.91,-0.13 11.74,-1.81 17.81,0.15 z m -77,-77.9 c 3.78,-0.57 7.94,-0.31 11.27,-1.86 a 69.47,69.47 0 0 1 29,-6.29 c 5.66,-0.07 11.4,0.59 17,-0.15 8.33,-1.11 16.86,-1.56 25,-4.78 -3.58,-3.35 -7.82,-4.07 -12,-5.13 -4.75,-1.19 -9.31,-3.15 -14.08,-4.3 -2.58,-0.61 -5.57,-3.37 -7.52,-1.89 -6.87,5.24 -15.44,6.34 -22.93,10.1 -8.79,4.38 -16.27,11.04 -25.73,14.3 z"
     id="path1976" /><path
     class="cls-2"
     d="m 237.32994,248.50947 c 1,0.91 0.4,4 3.46,2.21 1.47,-0.87 2.9,0.24 3.19,2 0.26,1.54 0.1,3 -1.75,3.62 -4.1,1.49 -8.07,3.41 -12.25,4.56 -10.4,2.84 -19.55,7.82 -28.21,14.21 -5.53,4.09 -11.92,7 -18,10.37 -3.78,2.08 -7.75,3.52 -10.63,7.28 -3.88,5.05 -9.44,8.44 -14.78,11.88 -1.7,1.1 -3.5,1.36 -4.83,-0.46 -1.33,-1.82 0.17,-3.39 1.48,-4.11 9.9,-5.48 16.21,-15.47 27.11,-20.1 9.67,-4.1 18.3,-10.71 27.2,-16.5 5.26,-3.43 11.11,-5.16 16.91,-7.18 3.31,-1.15 6.51,-2.58 9.76,-3.88 z"
     id="path1994" /><path
     class="cls-2"
     d="m 231.78994,149.21947 c 3.24,0.28 6,-0.47 6.16,2.73 0.16,3.2 -2.72,1.89 -4.42,2.5 a 74,74 0 0 0 -19.23,10.4 c -6.42,4.82 -11.52,11.12 -19.6,14.13 -4.06,1.52 -8.22,1.05 -12.28,2.84 a 70.49,70.49 0 0 0 -12.62,7.52 c -4.68,3.36 -9.94,5.43 -14.9,8.15 -1.53,0.83 -3.17,1.66 -4.27,-0.4 -1.1,-2.06 0.3,-3.52 2,-4.35 10.37,-5.21 19.31,-13.1 30.51,-16.72 4,-1.28 8.2,-1.07 12.15,-3.16 6.94,-3.66 11.58,-10 18,-14.17 6.12,-3.97 12.3,-8 18.5,-9.47 z"
     id="path1998" /><path
     class="cls-1"
     d="m 237.32994,248.50947 -1.33,3.92 c -2.56,0.16 -4.07,-0.66 -4,-3.61 0.1,-6.92 0.13,-13.8 3,-20.34 a 16.28,16.28 0 0 0 1.13,-6.75 c -0.15,-11.76 0.12,-23.52 -1,-35.27 -0.57,-6.1 0.72,-12.07 2.4,-18 0.88,-3.09 0.58,-6.58 0.46,-9.87 -0.1,-2.7 1.17,-3.8 3.47,-4.66 a 2.61,2.61 0 0 1 3.13,0.66 1.92,1.92 0 0 1 0,2.72 c -2.13,1.85 -1.61,4.29 -1.43,6.49 0.72,8.35 -4.44,16 -3,24.34 1.27,7.57 0.74,15.2 1,22.8 0.38,9.95 -0.23,19.72 -3.48,29.21 -1.01,2.79 -0.73,5.57 -0.35,8.36 z"
     id="path2000" /><path
     class="cls-1"
     d="m 169.50994,267.82947 c -0.49,0.88 2.63,5.33 -2,5.31 -4.07,0 -2.15,-4.08 -2.38,-6.39 -0.3,-3.1 -1.59,-6.07 -1.11,-9.29 0.27,-1.72 0.94,-2.93 2.71,-2.9 a 2.31,2.31 0 0 1 2.34,2.64 c -0.1,3.14 1.79,6.06 0.44,10.63 z"
     id="path2006" /><path
     class="cls-2"
     d="m 224.04994,216.66947 c -0.11,4.79 -2.75,7.63 -5.88,10.14 a 2.29,2.29 0 0 1 -3.48,-0.35 2.9,2.9 0 0 1 0.06,-4 c 1.92,-2.23 4.11,-4.19 4.61,-7.38 a 2.07,2.07 0 0 1 2.76,-1.43 2.46,2.46 0 0 1 1.93,3.02 z"
     id="path2008" /><path
     class="cls-2"
     d="m 159.96994,266.58947 c 0.62,3.53 -1.64,6.16 -2.1,9.24 -0.2,1.35 -1.5,1.68 -2.77,1.46 a 2.19,2.19 0 0 1 -2,-2.45 c 0.62,-4 1.39,-8 2.31,-12 a 2.19,2.19 0 0 1 2.46,-1.3 2.14,2.14 0 0 1 2.06,1.81 21.13,21.13 0 0 1 0.04,3.24 z"
     id="path2010" /><path
     class="cls-1"
     d="m 226.23994,186.72947 c -1.21,2.12 1.88,6.57 -2.86,6.41 -4,-0.13 -2.29,-4.13 -2.22,-6.38 0.07,-2.52 -2,-7.1 2.63,-7 4.09,0.15 1.39,4.57 2.45,6.97 z"
     id="path2014" /><path
     class="cls-2"
     d="m 200.02994,226.40947 c -0.36,-3 2.22,-4.63 2.95,-7.1 0.25,-0.82 1.64,-1.06 2.65,-0.56 a 2.28,2.28 0 0 1 1.41,2.41 71.52,71.52 0 0 1 -1.25,7.73 c -0.48,2 -2.33,1.64 -3.75,1.37 -2.17,-0.42 -2.08,-2.24 -2.01,-3.85 z"
     id="path2016" /><path
     class="cls-2"
     d="m 193.00994,251.71947 c 0.05,-2.22 -0.52,-4.73 2.21,-5.1 3,-0.39 2.59,2.09 2.9,4.08 0.31,1.99 1.11,3.76 1,5.8 -0.11,1.46 -0.39,2.65 -2.1,2.83 a 2.45,2.45 0 0 1 -2.88,-2.12 c -0.55,-1.9 -1.63,-3.69 -1.13,-5.49 z"
     id="path2018" /><path
     class="cls-2"
     d="m 186.64994,189.44947 c 1.11,0.24 2.13,0.71 2.34,2.06 0.18,1.1 0,2.23 0.87,3.22 1.6,1.8 2.23,4.08 -0.19,5.37 -2.42,1.29 -3.94,-1.12 -5.06,-2.8 -1.86,-2.8 -0.44,-7.81 2.04,-7.85 z"
     id="path2020" /><path
     class="cls-2"
     d="m 224.02994,239.05947 c 0,1.59 0,2.76 0,3.92 a 2.13,2.13 0 0 1 -2,2.35 2.34,2.34 0 0 1 -2.86,-2.1 13.6,13.6 0 0 1 -0.07,-3.49 c 0.25,-2.27 -1.21,-5.89 2.45,-6 3.96,-0.15 1.89,3.66 2.48,5.32 z"
     id="path2022" /><path
     class="cls-2"
     d="m 197.02994,227.44947 c 0,1.15 0,2.3 0,3.45 0,1.54 -0.79,2.48 -2.42,2.45 a 2.23,2.23 0 0 1 -2.45,-2 62.62,62.62 0 0 1 0,-7.87 2.25,2.25 0 0 1 2.42,-2 2.34,2.34 0 0 1 2.45,2.5 c 0.01,1.17 0,2.32 0,3.47 z"
     id="path2024" /><path
     class="cls-2"
     d="m 160.08994,242.02947 c -0.58,1.83 1.36,5.17 -2.43,5.23 -3.61,0.06 -2.53,-3.11 -2.61,-5.19 -0.08,-2.08 -0.73,-5.36 2.5,-5.44 3.51,-0.04 2.2,3.24 2.54,5.4 z"
     id="path2026" /><path
     class="cls-2"
     d="m 175.09994,201.22947 c -0.45,1.87 1,5.05 -2.39,5 -4,0 -2.44,-3.57 -2.65,-5.77 -0.21,-2.2 -0.47,-5 2.63,-4.84 3.53,0.23 1.97,3.52 2.41,5.61 z"
     id="path2028" /><path
     class="cls-2"
     d="m 175.20994,234.80947 c -0.31,4.17 -1.88,6 -4.49,6.46 a 2.26,2.26 0 0 1 -2.59,-3.13 c 0.85,-2.27 1.51,-5.34 4.62,-5.54 a 2.24,2.24 0 0 1 2.46,2.21 z"
     id="path2030" /><path
     class="cls-2"
     d="m 220.03994,189.41947 c 0,2 0.15,4.18 -2.55,3.87 -3.31,-0.38 -2.72,-3.61 -3.38,-5.73 a 2.27,2.27 0 0 1 2.39,-3 c 2.67,0.32 3.86,2.25 3.54,4.86 z"
     id="path2032" /><path
     class="cls-2"
     d="m 182.01994,256.58947 c -0.11,-1.93 0.05,-4.07 2.45,-4.08 3.25,0 2.74,3.26 3.43,5.2 0.61,1.73 -0.74,2.59 -2.59,2.67 -2.72,0.13 -3.41,-1.45 -3.29,-3.79 z"
     id="path2034" /><path
     class="cls-2"
     d="m 213.04994,245.93947 c 0,1.92 -0.27,3.69 -2.6,3.35 -2.58,-0.37 -3,-2.71 -3.37,-4.77 a 2.36,2.36 0 0 1 2.48,-3 3.74,3.74 0 0 1 3.49,4.42 z"
     id="path2036" /><path
     class="cls-2"
     d="m 161.03994,211.69947 c 0,1.89 0,3.84 -2.65,3.61 -2.65,-0.23 -2.37,-2.2 -2.39,-4 0,-2 0.45,-3.86 2.79,-3.7 2.34,0.16 2.32,2.25 2.25,4.09 z"
     id="path2038" /><path
     class="cls-1"
     d="m 117.40994,243.34947 c -3,0.29 -5.73,0 -6.41,-3.71 0,-0.16 0.05,-0.38 0,-0.48 -1.11,-1.43 -4.94,-0.55 -3.64,-3.93 1.3,-3.38 3.87,-5.51 6.87,-7.27 a 19.53,19.53 0 0 1 11.36,-2.63 c 4.28,0.26 5.84,2.26 4,6 a 112.66,112.66 0 0 1 -6.27,10.41 c -1.49,2.32 -3.86,1.48 -5.91,1.61 z m 4.57,-10.39 c 0,-1.52 -0.87,-1.92 -1.58,-1.48 -1.75,1.07 -4.89,0.81 -4.57,4 0.1,1 -0.51,2.95 1.73,2.85 3.73,-0.16 1.72,-4.74 4.42,-5.37 z"
     id="path2040" /><path
     class="cls-1"
     d="m 81.79994,255.36947 c -1.9,-0.09 -4.61,0.55 -4.62,-2.3 a 79,79 0 0 1 1.22,-12.16 c 0.17,-1.07 1.89,-2.06 2.79,-1.26 2.88,2.57 6.24,1.49 9.42,1.67 1.68,0.1 3.71,-0.11 4.19,1.8 0.48,1.91 0.78,3.83 -0.58,5.68 a 14.9,14.9 0 0 1 -12.42,6.57 z"
     id="path2042" /><path
     class="cls-1"
     d="m 54.18994,286.36947 c -2.92,-0.45 -7.65,1.85 -7.22,-4.68 0.58,-8.85 3.14,-11.4 9.08,-11.35 5.48,0.05 8,3 8,9.44 0,6.44 -0.39,6.59 -9.86,6.59 z m -2.13,-6.78 c -0.47,2.47 1.57,1.73 2.85,1.71 1.65,0 3.95,0.71 4.06,-2.13 0.07,-2 -1.3,-3.75 -3.09,-3.5 -1.79,0.25 -3.91,1.09 -3.82,3.92 z"
     id="path2044" /><path
     class="cls-1"
     d="m 86.12994,282.36947 c -2,-0.52 -5.34,1.38 -6.54,-1.3 -1.47,-3.29 -0.63,-7.16 -0.33,-10.77 a 2.2,2.2 0 0 1 2.13,-1.8 c 1.23,-0.07 2.52,0.63 2.52,1.87 0,5 3.15,3 5.37,2.43 2,-0.47 3.9,-2.6 5.9,-0.53 1.8,1.87 1.22,4.56 0.55,6.56 a 5,5 0 0 1 -5.8,3.57 27.78,27.78 0 0 0 -3.8,-0.03 z"
     id="path2046" /><path
     class="cls-1"
     d="m 51.10994,242.67947 c -0.22,-2.27 0.33,-3.55 1.69,-4 1.68,-0.57 2.58,0.41 3.36,2 1.61,3.27 2.68,7 7.54,7.38 2,0.15 1.63,2.71 1,4.18 -0.8,2 -0.88,4.79 -3.89,5.11 -1.87,0.2 -2.58,-1 -2.9,-2.65 -0.13,-0.73 -0.75,-2 -1.17,-2 -8.56,-0.11 -2.29,-8.05 -5.63,-10.02 z"
     id="path2048" /></svg>
