<?xml version="1.0" encoding="UTF-8" standalone="no"?>
<svg
   height="392.1px"
   width="486.25px"
   version="1.1"
   id="svg6"
   sodipodi:docname="talo.svg"
   inkscape:version="1.2 (dc2aedaf03, 2022-05-15)"
   xml:space="preserve"
   xmlns:inkscape="http://www.inkscape.org/namespaces/inkscape"
   xmlns:sodipodi="http://sodipodi.sourceforge.net/DTD/sodipodi-0.dtd"
   xmlns="http://www.w3.org/2000/svg"
   xmlns:svg="http://www.w3.org/2000/svg"
   xmlns:rdf="http://www.w3.org/1999/02/22-rdf-syntax-ns#"
   xmlns:cc="http://creativecommons.org/ns#"
   xmlns:dc="http://purl.org/dc/elements/1.1/"><metadata
     id="metadata12"><rdf:RDF><cc:Work
         rdf:about=""><dc:format>image/svg+xml</dc:format><dc:type
           rdf:resource="http://purl.org/dc/dcmitype/StillImage" /></cc:Work></rdf:RDF></metadata><defs
     id="defs10"><style
       id="style1970">.cls-1{fill:#131313;}.cls-2{fill:#1a1b1b;}</style><style
       id="style10721">.cls-1{fill:#131313;}.cls-2{fill:#1a1b1b;}</style></defs><sodipodi:namedview
     pagecolor="#ffffff"
     bordercolor="#666666"
     borderopacity="1"
     objecttolerance="10"
     gridtolerance="10"
     guidetolerance="10"
     inkscape:pageopacity="0"
     inkscape:pageshadow="2"
     inkscape:window-width="1920"
     inkscape:window-height="1001"
     id="namedview8"
     showgrid="false"
     inkscape:zoom="1"
     inkscape:cx="243.5"
     inkscape:cy="228.5"
     inkscape:window-x="-9"
     inkscape:window-y="-9"
     inkscape:window-maximized="1"
     inkscape:current-layer="svg6"
     inkscape:showpageshadow="2"
     inkscape:pagecheckerboard="0"
     inkscape:deskcolor="#d1d1d1" /><path
     class="cls-1"
     d="m 197.21586,213.55684 c -4.64277,-0.19344 -7.90084,2.57592 -11.85127,2.32139 -1.77157,-0.11208 -4.0115,-0.28508 -3.38025,-2.51483 0.63127,-2.22976 3.78751,-3.21736 2.37229,-6.91323 -0.46834,-1.22178 4.65294,-2.66755 7.26957,-3.95041 7.36124,-3.60426 16.29039,-3.15626 22.8778,-8.14519 7.60557,-5.74236 17.02345,-7.80921 24.60866,-13.52102 2.45373,-1.85303 6.38378,-1.65958 9.50948,-2.78972 1.87342,-0.67198 4.80567,-1.01816 3.44135,-4.50022 a 2.1584745,2.1584745 0 0 1 1.39486,-2.92207 c 3.88933,-0.71271 6.94378,-4.0726 10.45639,-4.38823 7.0354,-0.5498 12.21777,-4.75474 18.22486,-7.27976 a 90.045038,90.045038 0 0 1 15.82202,-5.52855 37.671486,37.671486 0 0 0 17.89905,-9.27533 c 3.75698,-3.59405 8.0332,-6.60778 11.95305,-9.85568 2.96283,-2.45374 7.94157,-3.94023 12.62504,-4.07258 14.34572,-0.34617 28.66087,0 42.83351,2.23992 4.27622,0.67199 8.49134,1.58832 12.81848,2.12794 4.0726,0.50906 5.58963,4.88711 7.49357,8.14518 a 1.8733928,1.8733928 0 0 1 -1.55776,2.67773 c -1.95484,0.26471 -4.76494,0.91633 -5.24347,-1.58832 -0.85524,-4.52056 -3.95041,-3.90969 -7.12704,-4.47984 -7.37138,-1.31341 -14.7326,-2.48429 -22.17526,-3.26826 -17.63432,-1.86321 -34.61705,-2.35191 -48.26024,12.59449 -5.16201,5.64055 -12.78793,8.86808 -21.01458,10.37493 -7.0252,1.28288 -13.69407,4.61222 -20.03715,8.14518 -3.52281,1.97522 -6.95395,3.98097 -11.19963,3.84861 a 2.3111965,2.3111965 0 0 0 -2.51482,2.0363 c -0.17311,1.33379 1.3643,1.42541 2.12792,1.63923 7.56484,2.13808 14.80388,5.4878 22.69453,6.40413 2.38247,0.27491 3.7366,2.16866 5.77289,2.89155 0.63127,0.224 1.20142,0.81452 1.81231,0.83487 8.00266,0.20364 5.28418,6.21071 6.20053,10.68039 1.89374,9.24477 1.82249,18.62192 2.70828,27.91762 a 112.85155,112.85155 0 0 1 -1.01817,28.2638 c -2.03629,12.83885 -2.87116,25.6268 0.54981,38.36383 1.29305,4.84639 0.34617,9.76403 0.6109,14.64097 0.10174,1.90393 -1.01815,2.93227 -2.83047,2.6981 -10.97562,-1.43561 -21.54401,2.637 -32.51964,2.18901 -12.69632,-0.51925 -25.45371,0.37672 -38.13985,-0.25454 -15.21113,-0.74324 -30.40191,-0.90615 -45.61304,-0.85524 -3.21735,0 -5.50818,-2.73883 -8.89862,-2.53519 -1.22176,0.0712 -0.92651,-2.09738 -0.68216,-3.75696 a 277.54722,277.54722 0 0 1 7.38158,-34.05707 8.3997235,8.3997235 0 0 0 0.12221,-3.05443 c -1.34395,-14.19301 3.35989,-26.91986 9.35678,-39.39218 1.82249,-3.62459 0.96725,-8.11463 3.12573,-12.13632 z m 91.17518,69.54971 c -3.05446,-3.28861 -1.41524,-6.98449 -1.77158,-10.35456 -0.1731,-1.66977 0.24435,-3.82824 -2.55556,-2.973 a 108.10699,108.10699 0 0 0 -11.94287,4.13367 c -1.55777,0.69236 -2.50466,2.91191 -4.71404,1.57814 a 2.5555523,2.5555523 0 0 1 -1.06905,-3.13591 c 0.64142,-1.84283 1.07922,-4.56129 3.50242,-4.3882 4.3984,0.31563 7.62593,-2.45374 11.45417,-3.55334 7.05576,-2.03629 10.5582,0.21381 10.35458,7.3714 -0.0814,3.00354 0.45817,5.62018 2.43336,7.78883 0.7229,0.78397 1.8734,1.69013 3.05445,1.20141 1.18106,-0.48871 0.59053,-1.7614 0.61088,-2.67774 0.061,-4.58165 -0.25453,-9.16333 0.1222,-13.73482 0.91635,-10.84326 3.33954,-21.58474 2.90174,-32.58073 a 308.34621,308.34621 0 0 0 -2.93227,-34.35232 c -0.39707,-2.57593 -1.45595,-2.03631 -3.05444,-1.50688 a 89.179609,89.179609 0 0 1 -9.09207,2.68792 c -13.54137,2.48428 -27.20492,1.47633 -40.7972,2.16867 -3.95041,0.20363 -8.60334,0.75342 -12.03452,2.51482 -8.95969,4.60203 -18.82554,4.95838 -28.23324,7.27976 -2.28065,0.55997 -2.37228,1.26251 -2.62682,3.12572 -0.75342,5.59981 -1.44577,11.30143 -3.97078,16.44309 -5.62017,11.45416 -9.42806,23.26469 -8.14519,36.24607 a 22.205814,22.205814 0 0 1 -1.01815,7.4325 c -1.87338,7.80918 -4.42894,15.40457 -5.33509,23.50904 -0.64143,5.72198 2.92208,5.84416 6.10889,5.91543 12.83884,0.30545 25.66752,0.6516 38.4962,0.91635 21.74763,0.43779 43.54618,1.13012 65.29383,-1.65961 8.09427,-1.01813 8.34882,-0.32579 7.35103,-8.55242 -0.0814,-0.66181 -0.42764,-1.29307 -0.45816,-1.94467 -0.16291,-3.4108 -1.90395,-4.07258 -5.17219,-4.00133 -8.51173,0.29527 -17.07436,-0.3869 -25.54535,0.24437 -7.97209,0.59052 -12.43159,-3.44135 -11.58654,-12.13634 0.20364,-2.12793 -0.50905,-5.09074 2.65737,-5.03983 3.16645,0.0509 2.38247,3.05444 2.45374,5.09075 0.19345,5.09072 1.9345,6.95393 7.12705,6.79103 6.01726,-0.13234 11.95305,-1.84283 18.13322,0.15273 z M 209.99361,203.7928 c 3.84861,-0.58034 8.08409,-0.31562 11.47454,-1.89376 a 70.730762,70.730762 0 0 1 29.52629,-6.40414 c 5.76272,-0.0712 11.60689,0.6007 17.30851,-0.15272 8.48118,-1.13016 17.16599,-1.58832 25.45372,-4.86676 -3.64497,-3.41079 -7.96192,-4.14387 -12.21778,-5.22311 -4.8362,-1.21159 -9.47895,-3.20715 -14.33554,-4.37803 -2.62681,-0.62107 -5.67107,-3.43114 -7.65646,-1.9243 -6.99469,5.3351 -15.7202,6.45506 -23.34615,10.28331 -8.94952,4.45947 -16.56528,11.24035 -26.19694,14.55951 z"
     id="path10727"
     style="stroke-width:1.01815" /><path
     class="cls-2"
     d="m 393.83047,246.55502 c 1.01814,0.92651 0.40724,4.0726 3.52278,2.25013 1.49669,-0.8858 2.95265,0.24435 3.24789,2.03628 0.26473,1.56796 0.10176,3.05444 -1.78174,3.6857 -4.17442,1.51704 -8.21647,3.47188 -12.47231,4.64275 -10.58875,2.89155 -19.9048,7.96193 -28.72199,14.4679 -5.63035,4.16423 -12.13632,7.12703 -18.32667,10.55819 -3.84859,2.11773 -7.89063,3.5839 -10.8229,7.41212 -3.95041,5.14164 -9.61133,8.59317 -15.04823,12.0956 -1.73086,1.11996 -3.56353,1.38469 -4.91767,-0.46835 -1.35412,-1.85304 0.17308,-3.45152 1.50686,-4.18458 10.07969,-5.57946 16.50418,-15.75076 27.602,-20.46479 9.84551,-4.1744 18.63212,-10.90435 27.69363,-16.79945 5.35547,-3.49224 11.31164,-5.25364 17.2169,-7.31029 3.37007,-1.17087 6.62814,-2.62683 9.93713,-3.95042 z"
     id="path10745"
     style="stroke-width:1.01815" /><path
     class="cls-2"
     d="m 388.18992,145.46309 c 3.29881,0.28507 6.10889,-0.47853 6.27179,2.77954 0.16291,3.25807 -2.76934,1.9243 -4.50021,2.54537 a 75.342974,75.342974 0 0 0 -19.57898,10.58874 c -6.53652,4.90748 -11.72908,11.32182 -19.95572,14.38643 -4.13367,1.54759 -8.36918,1.06907 -12.50286,2.89155 a 71.769273,71.769273 0 0 0 -12.84902,7.65648 c -4.76495,3.42097 -10.12041,5.52855 -15.17043,8.29791 -1.55775,0.84505 -3.22753,1.69012 -4.34749,-0.40726 -1.11995,-2.09739 0.30545,-3.58388 2.0363,-4.42895 10.5582,-5.30457 19.66045,-13.33774 31.06371,-17.02344 4.07259,-1.30323 8.34882,-1.08942 12.37051,-3.21736 7.06594,-3.72642 11.79016,-10.18147 18.32666,-14.42716 6.23107,-4.04204 12.52322,-8.14518 18.83574,-9.64185 z"
     id="path10749"
     style="stroke-width:1.01815" /><path
     class="cls-1"
     d="m 393.83047,246.55502 -1.35414,3.99115 c -2.60647,0.1629 -4.14386,-0.67199 -4.0726,-3.67552 0.10175,-7.04557 0.13236,-14.05045 3.05443,-20.70914 a 16.575454,16.575454 0 0 0 1.15052,-6.87249 c -0.15271,-11.97343 0.1222,-23.94684 -1.01813,-35.9101 -0.58035,-6.2107 0.73306,-12.28904 2.44355,-18.32666 0.89596,-3.14607 0.59052,-6.69942 0.46835,-10.04913 -0.10174,-2.749 1.19122,-3.86897 3.53296,-4.74456 a 2.657367,2.657367 0 0 1 3.18681,0.67199 1.9548448,1.9548448 0 0 1 0,2.76935 c -2.16867,1.88358 -1.63922,4.36786 -1.45595,6.60779 0.73306,8.50152 -4.52058,16.29036 -3.05445,24.78171 1.29306,7.7074 0.75343,15.47586 1.01815,23.2138 0.38689,10.13057 -0.23417,20.07788 -3.54315,29.7401 -1.02834,2.84062 -0.74325,5.6711 -0.35635,8.51171 z"
     id="path10751"
     style="stroke-width:1.01815" /><path
     class="cls-1"
     d="m 324.77965,266.22566 c -0.49889,0.89596 2.67774,5.42672 -2.03631,5.40636 -4.14386,0 -2.189,-4.15404 -2.42319,-6.50597 -0.30542,-3.15627 -1.61885,-6.18016 -1.13013,-9.4586 0.2749,-1.7512 0.95705,-2.98317 2.75918,-2.95262 a 2.3519226,2.3519226 0 0 1 2.38246,2.68791 c -0.10174,3.19699 1.82248,6.16998 0.44799,10.82292 z"
     id="path10757"
     style="stroke-width:1.01815" /><path
     class="cls-2"
     d="m 380.30946,214.13718 c -0.11208,4.87694 -2.7999,7.76847 -5.98672,10.32403 a 2.3315597,2.3315597 0 0 1 -3.54315,-0.35636 2.9526301,2.9526301 0 0 1 0.0611,-4.07259 c 1.95485,-2.27047 4.18457,-4.26604 4.69366,-7.51393 a 2.1075669,2.1075669 0 0 1 2.81009,-1.45594 2.5046448,2.5046448 0 0 1 1.96503,3.07479 z"
     id="path10759"
     style="stroke-width:1.01815" /><path
     class="cls-2"
     d="m 315.06651,264.96316 c 0.63126,3.59405 -1.66976,6.27178 -2.13811,9.40767 -0.20364,1.37451 -1.52722,1.71048 -2.82027,1.48651 a 2.2297446,2.2297446 0 0 1 -2.0363,-2.49447 c 0.63127,-4.07259 1.41523,-8.14519 2.35193,-12.21777 a 2.2297446,2.2297446 0 0 1 2.50464,-1.32359 2.1788373,2.1788373 0 0 1 2.09738,1.84282 21.513474,21.513474 0 0 1 0.0408,3.29883 z"
     id="path10761"
     style="stroke-width:1.01815" /><path
     class="cls-1"
     d="m 382.5392,183.65383 c -1.23196,2.15846 1.91412,6.68924 -2.9119,6.52632 -4.0726,-0.13236 -2.33155,-4.20493 -2.26029,-6.49578 0.0712,-2.56574 -2.03631,-7.22885 2.67772,-7.12704 4.16423,0.15273 1.41524,4.65294 2.49447,7.0965 z"
     id="path10765"
     style="stroke-width:1.01815" /><path
     class="cls-2"
     d="m 355.85353,224.05396 c -0.36654,-3.05445 2.26029,-4.71403 3.00354,-7.22885 0.25453,-0.83489 1.66976,-1.07924 2.6981,-0.57018 a 2.321378,2.321378 0 0 1 1.43558,2.45374 72.817965,72.817965 0 0 1 -1.27268,7.87029 c -0.4887,2.0363 -2.37229,1.66976 -3.81807,1.39486 -2.20937,-0.42763 -2.11773,-2.28066 -2.04647,-3.91986 z"
     id="path10767"
     style="stroke-width:1.01815" /><path
     class="cls-2"
     d="m 348.70614,249.82329 c 0.051,-2.26028 -0.52944,-4.81586 2.2501,-5.19256 3.05444,-0.39709 2.637,2.12793 2.95264,4.15404 0.31561,2.02611 1.13015,3.82825 1.01813,5.90528 -0.11195,1.48649 -0.39706,2.69808 -2.13812,2.88134 a 2.4944633,2.4944633 0 0 1 -2.93225,-2.15847 c -0.55998,-1.93447 -1.65959,-3.75697 -1.1505,-5.58963 z"
     id="path10769"
     style="stroke-width:1.01815" /><path
     class="cls-2"
     d="m 342.23071,186.42319 c 1.13014,0.24436 2.16866,0.72288 2.38247,2.09739 0.18326,1.11995 0,2.27047 0.88577,3.27843 1.62905,1.83267 2.2705,4.15404 -0.19343,5.46747 -2.46392,1.31339 -4.0115,-1.14034 -5.15184,-2.85082 -1.89374,-2.85081 -0.44798,-7.95175 2.07703,-7.99247 z"
     id="path10771"
     style="stroke-width:1.01815" /><path
     class="cls-2"
     d="m 380.28909,236.93352 c 0,1.61887 0,2.81011 0,3.99115 a 2.1686558,2.1686558 0 0 1 -2.0363,2.39265 2.3824669,2.3824669 0 0 1 -2.91188,-2.13812 13.846817,13.846817 0 0 1 -0.0713,-3.55334 c 0.25454,-2.31118 -1.23196,-5.99688 2.49446,-6.10889 4.03188,-0.15272 1.92431,3.72642 2.52503,5.41655 z"
     id="path10773"
     style="stroke-width:1.01815" /><path
     class="cls-2"
     d="m 352.7991,225.11282 c 0,1.17087 0,2.34174 0,3.51261 0,1.56796 -0.80435,2.52501 -2.46394,2.49446 a 2.2704708,2.2704708 0 0 1 -2.49446,-2.03629 63.756446,63.756446 0 0 1 0,-8.01283 2.2908336,2.2908336 0 0 1 2.46392,-2.03629 2.3824669,2.3824669 0 0 1 2.49448,2.54537 c 0.0108,1.19123 0,2.3621 0,3.53297 z"
     id="path10775"
     style="stroke-width:1.01815" /><path
     class="cls-2"
     d="m 315.18868,239.95742 c -0.59051,1.86323 1.38469,5.26383 -2.47409,5.32492 -3.67551,0.061 -2.57591,-3.16644 -2.65737,-5.28418 -0.0814,-2.11775 -0.74325,-5.45727 2.54537,-5.53874 3.57371,-0.0408 2.23994,3.29881 2.58609,5.498 z"
     id="path10777"
     style="stroke-width:1.01815" /><path
     class="cls-2"
     d="m 330.4711,198.41697 c -0.45816,1.90394 1.01816,5.14167 -2.43338,5.09075 -4.07259,0 -2.48428,-3.63479 -2.6981,-5.87472 -0.21381,-2.23993 -0.47852,-5.09075 2.67774,-4.92783 3.59406,0.23417 2.00576,3.58387 2.45374,5.7118 z"
     id="path10779"
     style="stroke-width:1.01815" /><path
     class="cls-2"
     d="m 330.58309,232.60639 c -0.31563,4.24568 -1.91412,6.10889 -4.57148,6.57725 a 2.3010151,2.3010151 0 0 1 -2.637,-3.1868 c 0.86542,-2.31122 1.5374,-5.43692 4.70385,-5.64055 a 2.2806523,2.2806523 0 0 1 2.50463,2.2501 z"
     id="path10781"
     style="stroke-width:1.01815" /><path
     class="cls-2"
     d="m 376.22668,186.39264 c 0,2.0363 0.15272,4.25586 -2.5963,3.94024 -3.37005,-0.3869 -2.76934,-3.6755 -3.44131,-5.83398 a 2.3111965,2.3111965 0 0 1 2.43337,-3.05445 c 2.71847,0.3258 3.93004,2.29082 3.60424,4.94819 z"
     id="path10783"
     style="stroke-width:1.01815" /><path
     class="cls-2"
     d="m 337.51669,254.78168 c -0.11209,-1.96505 0.0509,-4.14387 2.49445,-4.15406 3.30898,0 2.78973,3.31918 3.49226,5.29437 0.62107,1.7614 -0.75343,2.63699 -2.637,2.71846 -2.76936,0.13235 -3.47189,-1.47632 -3.34971,-3.85877 z"
     id="path10785"
     style="stroke-width:1.01815" /><path
     class="cls-2"
     d="m 369.10983,243.93839 c 0,1.95485 -0.27489,3.75696 -2.6472,3.4108 -2.62681,-0.37671 -3.05443,-2.75919 -3.43114,-4.85658 a 2.40283,2.40283 0 0 1 2.52499,-3.05443 3.8078746,3.8078746 0 0 1 3.55335,4.50021 z"
     id="path10787"
     style="stroke-width:1.01815" /><path
     class="cls-2"
     d="m 316.15594,209.07699 c 0,1.92431 0,3.90969 -2.6981,3.67551 -2.6981,-0.23417 -2.41301,-2.23993 -2.43337,-4.07259 0,-2.0363 0.45815,-3.93006 2.84062,-3.76715 2.38247,0.16291 2.36211,2.29084 2.29085,4.16423 z"
     id="path10789"
     style="stroke-width:1.01815" /><path
     class="cls-1"
     d="m 271.73413,241.30138 c -3.05446,0.29526 -5.83401,0 -6.52634,-3.77733 0,-0.1629 0.0509,-0.38689 0,-0.48871 -1.13014,-1.45595 -5.02966,-0.55998 -3.70605,-4.00132 1.32358,-3.44133 3.94022,-5.60999 6.99467,-7.40193 a 19.884436,19.884436 0 0 1 11.56616,-2.67774 c 4.35768,0.26472 5.946,2.30101 4.07259,6.10889 a 114.70459,114.70459 0 0 1 -6.38378,10.59894 c -1.51704,2.36209 -3.93005,1.50685 -6.01725,1.6392 z m 4.65294,-10.57855 c 0,-1.54759 -0.8858,-1.95485 -1.60867,-1.50687 -1.78178,1.08942 -4.97876,0.8247 -4.65295,4.07259 0.10175,1.01815 -0.51925,3.00354 1.76138,2.90172 3.79772,-0.16289 1.75122,-4.82602 4.50024,-5.46744 z"
     id="path10791"
     style="stroke-width:1.01815" /><path
     class="cls-1"
     d="m 235.47786,253.53951 c -1.93448,-0.0915 -4.69366,0.56 -4.70383,-2.34173 a 80.433714,80.433714 0 0 1 1.24213,-12.38067 c 0.17307,-1.08942 1.9243,-2.09739 2.84063,-1.28288 2.93227,2.61665 6.35324,1.51704 9.59097,1.70031 1.71048,0.10174 3.77731,-0.11196 4.26602,1.83267 0.48873,1.94466 0.79417,3.8995 -0.59052,5.78308 a 15.170409,15.170409 0 0 1 -12.6454,6.68922 z"
     id="path10793"
     style="stroke-width:1.01815" /><path
     class="cls-1"
     d="m 207.36679,285.10213 c -2.973,-0.45817 -7.78883,1.88356 -7.35103,-4.76495 0.59052,-9.01061 3.19698,-11.60688 9.24479,-11.55598 5.57944,0.051 8.14519,3.05445 8.14519,9.61133 0,6.55687 -0.39709,6.7096 -10.03895,6.7096 z m -2.16866,-6.90305 c -0.47854,2.51482 1.59849,1.76138 2.90171,1.74103 1.67996,0 4.02169,0.72288 4.13369,-2.16866 0.0714,-2.03629 -1.32358,-3.81806 -3.14609,-3.56352 -1.82246,0.25455 -3.98094,1.1098 -3.88931,3.99115 z"
     id="path10795"
     style="stroke-width:1.01815" /><path
     class="cls-1"
     d="m 239.88645,281.02953 c -2.03631,-0.52944 -5.43693,1.40503 -6.65868,-1.3236 -1.4967,-3.34971 -0.64146,-7.28995 -0.33601,-10.96544 a 2.2399262,2.2399262 0 0 1 2.16866,-1.83268 c 1.25231,-0.0712 2.56574,0.64143 2.56574,1.90395 0,5.09072 3.20716,3.05443 5.46746,2.4741 2.03629,-0.47855 3.97076,-2.64721 6.00708,-0.53963 1.83265,1.90394 1.24213,4.64276 0.55997,6.67907 a 5.0907415,5.0907415 0 0 1 -5.90527,3.63478 28.284159,28.284159 0 0 0 -3.86895,-0.0306 z"
     id="path10797"
     style="stroke-width:1.01815" /><path
     class="cls-1"
     d="m 204.2309,240.61923 c -0.22399,-2.3112 0.33599,-3.61443 1.72066,-4.07261 1.71049,-0.58033 2.62683,0.41746 3.42099,2.03631 1.6392,3.32935 2.72863,7.12704 7.67683,7.51392 2.0363,0.15272 1.65958,2.75918 1.01815,4.25587 -0.81452,2.03629 -0.89597,4.87693 -3.9606,5.20274 -1.90394,0.20363 -2.62682,-1.01814 -2.95263,-2.6981 -0.13236,-0.74324 -0.76361,-2.03628 -1.19123,-2.03628 -8.71535,-0.11208 -2.33157,-8.1961 -5.73217,-10.20185 z"
     id="path10799"
     style="stroke-width:1.01815" /></svg>
